<?xml version="1.0" standalone="no"?>
<!DOCTYPE svg PUBLIC "-//W3C//DTD SVG 20010904//EN"
 "http://www.w3.org/TR/2001/REC-SVG-20010904/DTD/svg10.dtd">
<svg version="1.0" xmlns="http://www.w3.org/2000/svg"
 width="1000.000000pt" height="1000.000000pt" viewBox="0 0 1000.000000 1000.000000"
 preserveAspectRatio="xMidYMid meet">
<metadata>
Created by potrace 1.11, written by Peter Selinger 2001-2013
</metadata>
<g transform="translate(0.000000,1000.000000) scale(0.100000,-0.100000)"
fill="#000000" stroke="none">
<path d="M373 8955 c-172 -47 -313 -189 -358 -360 -13 -53 -15 -452 -15 -3595
0 -3897 -5 -3586 61 -3711 38 -71 136 -167 207 -203 113 -57 88 -56 1062 -56
l895 0 95 25 c115 31 291 116 381 184 166 126 318 294 461 508 l83 125 3 -421
c1 -269 6 -421 12 -421 6 0 10 157 10 441 l0 441 38 69 37 69 518 0 517 0 0
-510 c0 -447 2 -510 15 -510 13 0 15 63 15 510 l0 510 555 0 555 0 0 -510 c0
-333 3 -510 10 -510 7 0 10 177 10 510 l0 510 555 0 555 0 0 -510 c0 -447 2
-510 15 -510 13 0 15 63 15 510 l0 510 555 0 555 0 0 -510 c0 -333 3 -510 10
-510 7 0 10 177 10 510 l0 510 555 0 555 0 0 -510 c0 -447 2 -510 15 -510 13
0 15 63 15 508 l0 509 152 6 c83 4 320 8 527 9 l376 2 -522 6 c-288 3 -524 8
-527 11 -2 2 -6 261 -8 574 l-3 570 528 3 c340 1 527 6 527 12 0 7 -186 10
-530 10 l-530 0 0 170 0 170 293 2 292 3 3 212 2 213 -292 2 -293 3 0 185 0
185 528 3 c340 1 527 6 527 12 0 7 -187 10 -530 10 l-530 0 2 573 3 572 528 3
c340 1 527 6 527 12 0 7 -186 10 -530 10 l-530 0 0 575 0 575 530 0 c344 0
530 3 530 10 0 6 -187 11 -527 12 l-528 3 -3 528 -2 527 530 0 531 0 -3 393
-3 392 -38 79 c-65 137 -181 231 -335 271 -54 13 -540 15 -4628 14 -3899 0
-4577 -2 -4621 -14z m2183 -580 c79 -187 178 -421 220 -520 42 -99 102 -241
134 -315 32 -74 94 -220 138 -325 44 -104 277 -653 517 -1219 239 -566 434
-1029 433 -1030 -3 -1 -83 80 -633 647 l-279 287 -890 0 c-489 0 -887 2 -885
4 4 4 205 61 464 131 52 15 210 58 783 215 188 52 342 99 342 105 0 6 -40 105
-89 220 -49 116 -195 464 -326 775 -130 311 -254 605 -275 655 -21 49 -42 91
-47 92 -4 2 -27 -43 -50 -99 -23 -57 -107 -258 -186 -448 -80 -190 -265 -633
-412 -985 -147 -352 -274 -651 -283 -665 -13 -21 -921 -960 -928 -960 -4 0
-76 -172 699 1655 371 875 725 1710 787 1858 l113 267 254 -2 255 -3 144 -340z
m2962 -1082 l-3 -528 -289 -3 c-272 -2 -288 -1 -283 15 56 194 285 760 392
973 l35 70 75 0 75 0 -2 -527z m1132 -3 l0 -530 -552 2 -553 3 -3 528 -2 527
555 0 555 0 0 -530z m1140 0 l0 -530 -555 0 -555 0 0 530 0 530 555 0 555 0 0
-530z m1140 0 l0 -530 -560 0 -560 0 0 530 0 530 560 0 560 0 0 -530z m-3410
-665 l0 -115 -334 0 -335 0 35 103 c19 56 36 108 39 115 3 9 73 12 300 12
l295 0 0 -115z m1130 -460 l0 -575 -552 2 -553 3 -3 238 -2 237 250 0 250 0 0
220 0 220 -250 0 -250 0 0 115 0 115 555 0 555 0 0 -575z m1140 0 l0 -575
-555 0 -555 0 0 575 0 575 555 0 555 0 0 -575z m1140 0 l0 -575 -557 2 -558 3
-3 573 -2 572 560 0 560 0 0 -575z m-3410 -335 l0 -240 -475 0 c-261 0 -475 3
-475 8 0 4 23 81 50 172 28 91 60 195 71 233 l20 67 404 0 405 0 0 -240z m-2
-837 l2 -573 -555 0 -555 0 0 319 c0 287 2 325 19 382 11 35 36 120 56 189 20
69 45 155 57 193 l20 67 477 -2 476 -3 3 -572z m1132 2 l0 -575 -555 0 -555 0
0 568 c0 313 3 572 7 575 3 4 253 7 555 7 l548 0 0 -575z m1140 0 l0 -575
-555 0 -555 0 0 575 0 575 555 0 555 0 0 -575z m1140 0 l0 -575 -560 0 -560 0
0 568 c0 313 3 572 7 575 3 4 255 7 560 7 l553 0 0 -575z m-4550 -320 l0 -255
-75 0 c-41 0 -75 3 -75 8 0 4 24 91 54 192 30 102 62 213 71 248 10 34 19 62
21 62 2 0 4 -115 4 -255z m4548 -459 c1 -99 -2 -184 -7 -189 -5 -5 -232 -6
-560 -1 l-551 7 0 178 0 179 248 3 c136 1 387 2 557 2 l310 0 3 -179z m-4548
-396 l0 -570 -260 0 c-143 0 -260 1 -260 3 0 1 40 124 89 272 49 149 128 398
176 555 47 157 88 291 90 298 3 8 29 12 85 12 l80 0 0 -570z m1140 0 l0 -570
-555 0 -555 0 0 570 0 570 555 0 555 0 0 -570z m1130 0 l0 -570 -555 0 -555 0
0 570 0 570 555 0 555 0 0 -570z m1140 390 l0 -180 -275 0 -275 0 0 -220 0
-220 275 0 275 0 0 -170 0 -170 -555 0 -555 0 0 570 0 570 555 0 555 0 0 -180z
m1140 -790 l0 -170 -560 0 -560 0 0 170 0 170 560 0 560 0 0 -170z m-4 -201
c3 -6 3 -265 -1 -575 l-8 -564 -553 0 -554 0 0 570 0 570 458 3 c251 1 501 3
554 5 61 1 99 -2 104 -9z m-4546 -189 l0 -190 -336 0 c-265 0 -335 3 -332 13
3 6 34 92 69 189 l64 178 268 0 267 0 0 -190z m1140 -380 l0 -570 -555 0 -555
0 0 570 0 570 555 0 555 0 0 -570z m1130 0 l0 -570 -555 0 -555 0 0 570 0 570
555 0 555 0 0 -570z m1140 0 l0 -570 -555 0 -555 0 0 570 0 570 555 0 555 0 0
-570z m-3410 -405 l0 -165 -508 0 -508 0 81 165 80 164 428 1 427 0 0 -165z"/>
</g>
</svg>
