<?xml version="1.0" encoding="utf-8"?>
<!-- Generator: Adobe Illustrator 21.0.2, SVG Export Plug-In . SVG Version: 6.00 Build 0)  -->
<svg version="1.1" id="Layer_1" xmlns="http://www.w3.org/2000/svg" xmlns:xlink="http://www.w3.org/1999/xlink" x="0px" y="0px"
	 viewBox="0 0 1075.084 179.81" enable-background="new 0 0 1075.084 179.81" xml:space="preserve">
<path fill="#FFFFFF" d="M612.583,128.381c-6.462-4.988-23.198-18.349-38.988-34.638c-4.373-4.509-7.658-9.037-10.678-13.468
	l20.146-20.146c1.346,0.189,2.703,0.285,4.061,0.285c7.785,0,15.104-3.033,20.606-8.538c7.149-7.148,10.103-17.689,7.708-27.511
	c-0.428-1.755-1.77-3.143-3.509-3.63c-0.445-0.125-0.898-0.185-1.349-0.185c-1.308,0-2.585,0.514-3.536,1.465l-17.669,17.672
	l-8.416-2.256l-2.257-8.422l17.67-17.664c1.277-1.277,1.767-3.144,1.28-4.883s-1.873-3.081-3.628-3.51
	c-2.262-0.553-4.587-0.833-6.912-0.833c-7.787,0-15.104,3.037-20.598,8.543c-1.76,1.757-3.266,3.72-4.5,5.827
	c-0.92-1.159-1.95-2.214-2.81-3.094c-7.309-7.479-15.625-11.271-24.719-11.271c-12.262,0-22.59,7.08-27.531,11.168
	c-0.614-0.172-1.251-0.262-1.896-0.262c-1.828,0-3.561,0.696-4.916,1.994c-0.033,0.032-0.127,0.126-0.159,0.159l-22.471,23.176
	c-1.905,1.995-2.451,4.795-1.638,7.252c-3.7,0.467-6.296,1.412-8.16,2.97c-0.24,0.201-0.313,0.262-5.211,5.261
	c-2.674,2.797-2.674,7.179,0.024,10.001l16.778,17.307c1.324,1.38,3.181,2.172,5.094,2.172c1.829,0,3.564-0.697,4.914-1.992
	c0.041-0.04,0.143-0.142,0.183-0.183c4.795-5.006,4.858-5.085,5.044-5.322c0.048-0.061,0.095-0.123,0.14-0.186
	c1.406-1.881,2.264-4.47,2.688-8.106c0.657,0.199,1.344,0.303,2.039,0.303c1.831,0,3.567-0.698,4.875-1.953
	c0.048-0.046,0.156-0.153,0.202-0.201l1.279-1.319l5.985,6.175c-0.452,1.375-0.299,2.918,0.505,4.209
	c0.056,0.088,0.987,1.576,2.677,3.893l-21.232,21.234c-1.345-0.189-2.702-0.285-4.059-0.285c-7.787,0-15.104,3.035-20.601,8.542
	c-5.507,5.503-8.541,12.822-8.54,20.608c0,7.784,3.033,15.104,8.538,20.607c5.504,5.506,12.823,8.539,20.608,8.539
	s15.103-3.033,20.604-8.537c6.465-6.46,9.501-15.694,8.258-24.666l21.993-21.992c4.345,3.145,8.786,6.56,13.21,11.121
	c16.262,16.774,29.819,35.024,33.587,40.219c0.977,1.346,2.794,3.851,6.012,3.852h0.001c2.725,0,4.365-1.695,5.949-3.331
	l13.833-14.271c1.573-1.624,3.356-3.465,3.149-6.339C616.036,131.049,613.876,129.38,612.583,128.381z M491.792,136.737
	l-8.002-2.143l-2.143-8.003l5.858-5.854l7.999,2.142l2.143,8.002L491.792,136.737z M558.254,35.315l-18.576,18.577
	c-2.359-1.842-3.886-2.858-3.977-2.918c-0.845-0.56-1.806-0.833-2.761-0.833c-0.479,0-0.958,0.069-1.419,0.205l-6.086-6.274
	l1.519-1.568c1.879-1.968,2.437-4.72,1.662-7.163c3.592-3.756,11.075-10.274,19.741-10.274c1.676,0,3.358,0.245,5.002,0.729
	c0.509,0.149,1.061,0.357,1.595,0.559c1.101,0.415,2.149,0.81,3.313,0.911C557.894,29.917,557.882,32.627,558.254,35.315z"/>
<g>
	<g>
		<path fill="#94989B" d="M513.108,123.012l68.288-68.288c8.193,2.001,16.836-0.419,22.798-6.384
			c5.962-5.961,8.383-14.6,6.386-22.791l-19.712,19.714l-13.993-3.751l-3.751-14l19.712-19.705
			c-8.191-2.003-16.834,0.42-22.789,6.391c-5.965,5.957-8.389,14.596-6.393,22.786l-68.288,68.293
			c-8.191-2.002-16.833,0.421-22.791,6.388c-9.433,9.427-9.431,24.715,0,34.144c9.429,9.431,24.715,9.431,34.142,0
			C512.683,139.848,515.106,131.206,513.108,123.012z M493.399,142.731l-13.997-3.749l-3.749-14l10.246-10.24l13.993,3.746
			l3.749,13.997L493.399,142.731z"/>
		<path fill="#666666" d="M531.075,57.067l-12.713,13.107l-12.636-13.036l12.706-13.105L531.075,57.067z"/>
		<path fill="#94989B" d="M503.575,18.662L481.13,41.81c-0.82,0.857-0.82,2.208,0,3.066l8.347,8.611l0.098,0.102l8.347,8.611
			c0.788,0.821,2.093,0.848,2.914,0.06c0.02-0.02,0.041-0.04,0.06-0.06l22.442-23.151c0.82-0.858,0.82-2.21,0-3.068l-16.794-17.32
			c-0.786-0.82-2.088-0.848-2.908-0.062C503.616,18.62,503.595,18.641,503.575,18.662z M466.119,57.295
			c-0.82,0.857-0.82,2.208,0,3.066l16.797,17.325c0.787,0.821,2.09,0.848,2.911,0.061c0.021-0.02,0.041-0.04,0.061-0.061
			c0,0,4.63-4.833,4.73-4.96l-19.694-20.311C470.801,52.517,466.119,57.295,466.119,57.295z"/>
		<path fill="#666666" d="M489.477,53.487l-8.347-8.611c0,0,2.747,4.808-4.459,5.673c-2.899,0.348-4.717,1.004-5.746,1.865
			l19.691,20.311c0.834-1.064,1.471-2.936,1.806-5.928c0.845-7.436,5.5-4.598,5.5-4.598l-8.347-8.611L489.477,53.487z
			 M555.629,16.888c-22.912-23.447-48.194,2.694-48.194,2.694l14.899,15.364c0,0,14.325-19.279,32.436-13.947
			c2.107,0.619,3.979,1.685,4.512,1.141C560.004,21.397,557.246,18.543,555.629,16.888z"/>
		<path fill="#F2B200" d="M524.717,63.62l-8.217,8.481c0,0,4.245,6.83,11.531,14.341c8.037,8.292,18.662,12.945,29.273,23.886
			c15.956,16.459,29.232,34.131,34.044,40.763c1.817,2.505,2.107,2.268,4.325-0.023l6.919-7.135L524.717,63.62z"/>
		<path fill="#FFCE31" d="M524.717,63.62l8.222-8.479c0,0,6.623,4.38,13.906,11.891c8.042,8.292,12.551,19.252,23.16,30.193
			c15.956,16.459,33.09,30.149,39.524,35.114c2.423,1.872,2.198,2.166-0.025,4.462l-6.917,7.135L524.717,63.62z"/>
	</g>
</g>
<g>
	<path fill="#FFFFFF" d="M366.284,10.214c-3.045,0-5.353,0.905-6.933,2.713c-1.579,1.808-2.369,3.976-2.369,6.501
		c0,2.583,0.776,4.736,2.326,6.459c1.55,1.723,3.874,2.583,6.975,2.583c3.1,0,5.453-0.861,7.062-2.583
		c1.606-1.723,2.411-3.876,2.411-6.459s-0.805-4.764-2.411-6.544C371.737,11.104,369.384,10.214,366.284,10.214z"/>
	<path fill="#FFFFFF" d="M409.688,10.214c-3.1,0-5.44,0.891-7.019,2.67c-1.579,1.78-2.369,3.961-2.369,6.544s0.79,4.736,2.369,6.459
		c1.579,1.723,3.919,2.583,7.019,2.583s5.454-0.861,7.062-2.583c1.606-1.723,2.411-3.876,2.411-6.459s-0.805-4.764-2.411-6.544
		C415.141,11.104,412.788,10.214,409.688,10.214z"/>
	<g>
		<path fill="#FFFFFF" d="M5,142c-2.761,0-5-2.238-5-5V12c0-2.761,2.239-5,5-5h79c2.761,0,5,2.239,5,5v14c0,2.761-2.239,5-5,5H27v30
			h49c2.761,0,5,2.239,5,5v14c0,2.761-2.239,5-5,5H27v34h58c2.761,0,5,2.238,5,5v13c0,2.762-2.239,5-5,5H5z"/>
		<path fill="#FFFFFF" d="M217,142c-2.761,0-5-2.238-5-5V75.513c0-5.34-1.081-9.233-3.213-11.572
			c-2.505-2.744-7.624-3.32-11.477-3.32c-4.603,0-8.268,1.304-11.204,3.987c-2.905,2.655-4.577,6.2-5.106,10.833V137
			c0,2.762-2.239,5-5,5h-16c-2.761,0-5-2.238-5-5V75.943c0-10.74-4.406-15.323-14.731-15.323c-7.996,0-13.192,3.001-16.269,9.426
			V137c0,2.762-2.239,5-5,5h-16c-2.761,0-5-2.238-5-5V44c0-2.761,2.239-5,5-5h15.112c2.639,0,4.815,2.048,4.989,4.667
			c6.505-4.244,14.257-6.386,23.162-6.386c12.12,0,21.274,3.859,27.311,11.49c2.653-2.61,5.692-4.865,9.089-6.741
			c5.704-3.151,12.458-4.749,20.075-4.749c23.332,0,35.87,12.906,36.261,37.324L239,137c0,2.762-2.239,5-5,5H217z"/>
		<g>
			<path fill="#FFFFFF" d="M350.704,179.81c-4.028,0-7.84-0.609-11.332-1.812c-2.018-0.694-3.372-2.594-3.372-4.728v-12.669
				c0-1.541,0.71-2.995,1.925-3.943c0.888-0.691,1.972-1.057,3.075-1.057c0.407,0,0.816,0.05,1.219,0.15
				c0.978,0.246,2.803,0.539,5.948,0.539c2.094,0,3.594-0.456,4.46-1.354c0.316-0.33,1.373-1.804,1.373-6.574V44
				c0-2.761,2.239-5,5-5h16c2.761,0,5,2.239,5,5v103.941C380,168.492,369.596,179.81,350.704,179.81z"/>
			<path fill="#FFFFFF" d="M366.284,33.47c-4.563,0-8.16-1.426-10.691-4.238c-2.396-2.662-3.61-5.961-3.61-9.804
				c0-3.758,1.212-7.052,3.603-9.79c1.762-2.018,5.049-4.424,10.699-4.424c5.677,0,8.99,2.348,10.771,4.317
				c2.458,2.725,3.702,6.054,3.702,9.897c0,3.821-1.298,7.233-3.753,9.868C374.416,32.067,370.81,33.47,366.284,33.47z"/>
		</g>
		<path fill="#FFFFFF" d="M329.952,52.195c-8.807-9.869-20.442-14.874-34.582-14.874c-9.132,0-17.406,2.255-24.593,6.703
			c-7.195,4.454-12.871,10.832-16.87,18.958C249.987,70.949,248,79.996,248,89.87v1.121c0,15.695,4.391,28.573,13.05,38.279
			c8.806,9.869,20.411,14.873,34.494,14.873c9.308,0,17.702-2.286,24.948-6.795c7.256-4.514,12.906-10.888,16.791-18.944
			c3.794-7.868,5.718-16.83,5.718-26.636v-1.121C343,74.838,338.61,61.901,329.952,52.195z M311.071,111.517
			c-3.847,5.121-9.036,7.682-15.571,7.682c-6.489,0-11.668-2.526-15.537-7.577c-3.869-5.05-5.804-11.748-5.804-20.09
			c0-9.407,1.946-16.637,5.84-21.688c3.892-5.051,9.013-7.577,15.361-7.577c6.489,0,11.69,2.561,15.607,7.681
			c3.916,5.121,5.875,11.806,5.875,20.055C316.842,99.224,314.917,106.397,311.071,111.517z"/>
		<g>
			<path fill="#FFFFFF" d="M409.688,33.47c-4.545,0-8.146-1.415-10.704-4.204c-2.444-2.665-3.684-5.975-3.684-9.838
				c0-3.831,1.221-7.149,3.628-9.863c1.762-1.985,5.059-4.352,10.759-4.352c5.678,0,8.991,2.348,10.771,4.317
				c2.458,2.724,3.702,6.053,3.702,9.897c0,3.822-1.298,7.234-3.754,9.869C417.82,32.067,414.214,33.47,409.688,33.47z"/>
			<path fill="#FFFFFF" d="M402,142c-2.761,0-5-2.238-5-5V44c0-2.761,2.239-5,5-5h16c2.761,0,5,2.239,5,5v93c0,2.762-2.239,5-5,5
				H402z"/>
		</g>
	</g>
	<g>
		<path fill="#FFCE31" d="M76,80H22v44h63v13H5V12h79v14H22v40h54V80z"/>
		<path fill="#FFCE31" d="M118.112,44l0.432,10.315c6.85-8.023,16.09-12.034,27.719-12.034c13.068,0,21.963,4.986,26.684,14.955
			c3.108-4.469,7.153-8.079,12.133-10.83c4.979-2.75,10.865-4.126,17.658-4.126c20.496,0,30.916,10.802,31.262,32.404V137h-17
			V75.513c0-6.659-1.508-11.639-4.517-14.941c-3.014-3.301-8.071-4.952-15.172-4.952c-5.854,0-10.713,1.766-14.577,5.296
			c-3.865,3.531-6.109,8.283-6.733,14.252V137h-16V75.944c0-13.548-6.577-20.323-19.731-20.323
			c-10.365,0-17.454,4.449-21.269,13.348V137h-16V44H118.112z"/>
		<path fill="#FFCE31" d="M253,89.87c0-9.148,1.799-17.374,5.393-24.681c3.595-7.305,8.601-12.943,15.015-16.914
			c6.414-3.969,13.735-5.954,21.962-5.954c12.715,0,22.998,4.402,30.852,13.203C334.073,64.327,338,76.034,338,90.646v1.121
			c0,9.091-1.741,17.246-5.222,24.464c-3.481,7.22-8.456,12.844-14.928,16.87c-6.472,4.027-13.909,6.041-22.307,6.041
			c-12.657,0-22.911-4.402-30.763-13.203C256.927,117.138,253,105.488,253,90.991V89.87z M269.317,91.765
			c0,10.334,2.398,18.631,7.191,24.888c4.793,6.258,11.21,9.387,19.248,9.387c8.096,0,14.523-3.172,19.29-9.516
			c4.764-6.343,7.148-15.229,7.148-26.653c0-10.219-2.427-18.5-7.277-24.845c-4.853-6.343-11.296-9.516-19.334-9.516
			c-7.865,0-14.208,3.129-19.03,9.387C271.728,71.156,269.317,80.112,269.317,91.765z"/>
		<path fill="#FFCE31" d="M375,44v103.942c0,17.913-8.1,26.867-24.296,26.867c-3.492,0-6.725-0.514-9.704-1.539v-12.669
			c1.822,0.458,4.21,0.689,7.167,0.689c3.525,0,6.211-0.965,8.061-2.887c1.846-1.926,2.772-5.271,2.772-10.042V44H375z
			 M356.983,19.428c0-2.525,0.79-4.693,2.369-6.501c1.579-1.808,3.888-2.713,6.933-2.713c3.1,0,5.454,0.891,7.062,2.67
			c1.606,1.78,2.411,3.961,2.411,6.544s-0.805,4.736-2.411,6.459c-1.608,1.723-3.961,2.583-7.062,2.583
			c-3.1,0-5.425-0.861-6.975-2.583C357.759,24.164,356.983,22.011,356.983,19.428z"/>
		<path fill="#FFCE31" d="M400.3,19.428c0-2.583,0.79-4.764,2.369-6.544c1.579-1.779,3.919-2.67,7.019-2.67
			c3.1,0,5.454,0.891,7.062,2.67c1.606,1.78,2.411,3.961,2.411,6.544s-0.805,4.736-2.411,6.459
			c-1.608,1.723-3.961,2.583-7.062,2.583c-3.1,0-5.44-0.861-7.019-2.583C401.089,24.164,400.3,22.011,400.3,19.428z M418,137h-16V44
			h16V137z"/>
	</g>
</g>
<g>
	<g>
		<path fill="#FFFFFF" d="M692,142c-2.762,0-5-2.238-5-5V31h-36c-2.762,0-5-2.239-5-5V12c0-2.761,2.238-5,5-5h97
			c2.762,0,5,2.239,5,5v14c0,2.761-2.238,5-5,5h-35v106c0,2.762-2.238,5-5,5H692z"/>
		<path fill="#FFFFFF" d="M959,142c-2.762,0-5-2.238-5-5V5c0-2.761,2.238-5,5-5h16c2.762,0,5,2.239,5,5v132c0,2.762-2.238,5-5,5H959
			z"/>
		<path fill="#FFFFFF" d="M1034.285,144.304c-8.132,0-15.479-1.482-21.835-4.405c-6.528-3.003-11.733-7.292-15.471-12.749
			c-3.799-5.547-5.726-11.653-5.726-18.149c0-2.762,2.238-5,5-5h15.882c2.657,0,4.851,2.078,4.993,4.731
			c0.209,3.901,1.636,6.76,4.488,8.996c3.057,2.398,7.318,3.614,12.668,3.614c4.972,0,8.902-0.943,11.685-2.805
			c2.235-1.496,3.232-3.22,3.232-5.588c0-2.701-0.867-4.543-2.813-5.972c-1.817-1.335-5.896-3.334-14.995-5.278
			c-8.548-1.824-15.21-3.988-20.368-6.615c-5.454-2.776-9.605-6.216-12.337-10.223c-2.825-4.149-4.258-9.082-4.258-14.664
			c0-9.148,3.867-16.949,11.493-23.185c7.324-5.991,16.693-9.028,27.847-9.028c11.676,0,21.37,3.131,28.815,9.308
			c7.722,6.406,11.637,14.72,11.637,24.708c0,2.761-2.238,5-5,5h-15.966c-2.762,0-5-2.239-5-5c0-2.875-1.202-5.24-3.783-7.441
			c-2.783-2.373-6.284-3.526-10.703-3.526c-4.623,0-8.159,0.92-10.511,2.735c-2.038,1.574-2.947,3.398-2.947,5.914
			c0,2.145,0.651,3.438,2.249,4.463c1.738,1.115,5.723,2.872,14.831,4.908c8.282,1.854,15.15,4.129,20.416,6.76
			c5.662,2.831,9.979,6.372,12.832,10.525c2.949,4.302,4.442,9.514,4.442,15.495c0,9.912-4.021,17.97-11.949,23.95
			C1055.644,141.437,1045.937,144.304,1034.285,144.304z"/>
		<path fill="#FFFFFF" d="M828.952,52.195c-8.809-9.87-20.443-14.874-34.583-14.874c-9.132,0-17.405,2.255-24.593,6.703
			c-7.194,4.454-12.87,10.832-16.869,18.958C748.987,70.949,747,79.996,747,89.87v1.121c0,15.695,4.391,28.574,13.05,38.278
			c8.806,9.87,20.41,14.874,34.493,14.874c9.308,0,17.702-2.286,24.948-6.795c7.257-4.514,12.905-10.888,16.791-18.944
			c3.794-7.867,5.718-16.829,5.718-26.636v-1.121C842,74.838,837.61,61.902,828.952,52.195z M810.071,111.517
			c-3.847,5.121-9.036,7.682-15.571,7.682c-6.489,0-11.668-2.526-15.537-7.577c-3.869-5.05-5.804-11.748-5.804-20.09
			c0-9.407,1.946-16.637,5.84-21.688c3.892-5.051,9.013-7.577,15.361-7.577c6.489,0,11.69,2.561,15.607,7.682
			c3.916,5.121,5.875,11.806,5.875,20.055C815.842,99.224,813.917,106.397,810.071,111.517z"/>
		<path fill="#FFFFFF" d="M928.952,52.195c-8.809-9.87-20.443-14.874-34.583-14.874c-9.132,0-17.405,2.255-24.593,6.703
			c-7.194,4.454-12.87,10.832-16.869,18.958C848.987,70.949,847,79.996,847,89.87v1.121c0,15.695,4.391,28.574,13.05,38.278
			c8.806,9.87,20.41,14.874,34.493,14.874c9.308,0,17.702-2.286,24.948-6.795c7.257-4.514,12.905-10.888,16.791-18.944
			c3.794-7.867,5.718-16.829,5.718-26.636v-1.121C942,74.838,937.61,61.902,928.952,52.195z M910.071,111.517
			c-3.847,5.121-9.036,7.682-15.571,7.682c-6.489,0-11.668-2.526-15.537-7.577c-3.869-5.05-5.804-11.748-5.804-20.09
			c0-9.407,1.946-16.637,5.84-21.688c3.892-5.051,9.013-7.577,15.361-7.577c6.489,0,11.69,2.561,15.607,7.682
			c3.916,5.121,5.875,11.806,5.875,20.055C915.842,99.224,913.917,106.397,910.071,111.517z"/>
	</g>
	<g>
		<path fill="#666666" d="M748,26h-40v111h-16V26h-41V12h97V26z"/>
		<path fill="#666666" d="M752,89.87c0-9.148,1.799-17.374,5.393-24.681c3.595-7.305,8.601-12.943,15.015-16.914
			c6.414-3.969,13.735-5.954,21.961-5.954c12.715,0,22.998,4.402,30.852,13.203C833.073,64.327,837,76.034,837,90.646v1.121
			c0,9.091-1.741,17.246-5.222,24.464c-3.481,7.22-8.456,12.844-14.928,16.87c-6.472,4.027-13.909,6.041-22.307,6.041
			c-12.657,0-22.911-4.402-30.763-13.203C755.927,117.138,752,105.488,752,90.991V89.87z M767.846,91.765
			c0,10.334,2.398,18.631,7.191,24.888c4.793,6.258,11.21,9.387,19.248,9.387c8.096,0,14.523-3.172,19.29-9.516
			c4.764-6.343,7.148-15.229,7.148-26.653c0-10.219-2.427-18.5-7.277-24.845c-4.853-6.343-11.296-9.516-19.334-9.516
			c-7.864,0-14.208,3.129-19.03,9.387C770.257,71.156,767.846,80.112,767.846,91.765z"/>
		<path fill="#666666" d="M852,89.87c0-9.148,1.799-17.374,5.393-24.681c3.595-7.305,8.601-12.943,15.015-16.914
			c6.414-3.969,13.735-5.954,21.961-5.954c12.715,0,22.998,4.402,30.852,13.203C933.073,64.327,937,76.034,937,90.646v1.121
			c0,9.091-1.741,17.246-5.222,24.464c-3.481,7.22-8.456,12.844-14.928,16.87c-6.472,4.027-13.909,6.041-22.307,6.041
			c-12.657,0-22.911-4.402-30.763-13.203C855.927,117.138,852,105.488,852,90.991V89.87z M868.43,91.765
			c0,10.334,2.398,18.631,7.191,24.888c4.793,6.258,11.21,9.387,19.247,9.387c8.096,0,14.523-3.172,19.29-9.516
			c4.764-6.343,7.148-15.229,7.148-26.653c0-10.219-2.427-18.5-7.277-24.845c-4.853-6.343-11.296-9.516-19.334-9.516
			c-7.865,0-14.208,3.129-19.03,9.387C870.841,71.156,868.43,80.112,868.43,91.765z"/>
		<path fill="#666666" d="M975,137h-16V5h16V137z"/>
		<path fill="#666666" d="M1054.202,112.949c0-4.292-1.619-7.625-4.851-10.001c-3.235-2.375-8.871-4.421-16.912-6.138
			s-14.42-3.777-19.143-6.181c-4.723-2.403-8.212-5.265-10.474-8.584c-2.261-3.319-3.39-7.268-3.39-11.847
			c0-7.61,3.219-14.049,9.658-19.315c6.439-5.266,14.664-7.899,24.681-7.899c10.529,0,19.07,2.719,25.624,8.156
			c6.554,5.438,9.829,12.392,9.829,20.86h-15.966c0-4.348-1.847-8.097-5.538-11.245c-3.692-3.147-8.341-4.721-13.948-4.721
			c-5.782,0-10.303,1.259-13.565,3.777c-3.261,2.519-4.893,5.809-4.893,9.872c0,3.836,1.517,6.726,4.55,8.671
			c3.033,1.946,8.512,3.807,16.44,5.579c7.926,1.775,14.349,3.893,19.272,6.353c4.922,2.461,8.569,5.423,10.946,8.884
			c2.375,3.464,3.563,7.684,3.563,12.663c0,8.299-3.321,14.951-9.959,19.959c-6.638,5.009-15.252,7.512-25.839,7.512
			c-7.441,0-14.024-1.317-19.746-3.949s-10.201-6.31-13.434-11.031c-3.235-4.721-4.851-9.83-4.851-15.324h15.882
			c0.286,5.322,2.419,9.544,6.396,12.662c3.978,3.121,9.228,4.679,15.753,4.679c6.008,0,10.829-1.216,14.465-3.649
			C1052.384,120.261,1054.202,117.013,1054.202,112.949z"/>
	</g>
</g>
<g>
</g>
<g>
</g>
<g>
</g>
<g>
</g>
<g>
</g>
<g>
</g>
<g>
</g>
<g>
</g>
<g>
</g>
<g>
</g>
<g>
</g>
<g>
</g>
<g>
</g>
<g>
</g>
<g>
</g>
</svg>
