<?xml version="1.0" encoding="utf-8"?>
<!-- Generator: Adobe Illustrator 21.0.2, SVG Export Plug-In . SVG Version: 6.00 Build 0)  -->
<svg version="1.1" id="Layer_1" xmlns="http://www.w3.org/2000/svg" xmlns:xlink="http://www.w3.org/1999/xlink" x="0px" y="0px"
	 viewBox="0 0 1065 169.906" enable-background="new 0 0 1065 169.906" xml:space="preserve">
<g>
	<g>
		<g>
			<g enable-background="new    ">
				<g>
					<polygon fill="#6F7274" points="500.247,12.392 502.86,15.008 519.583,32.301 516.97,29.684 					"/>
				</g>
				<g enable-background="new    ">
					<defs>
						<path id="SVGID_1_" enable-background="new    " d="M500.213,12.357l2.613,2.617c0.011,0.011,0.022,0.023,0.034,0.034
							l-2.613-2.617C500.236,12.38,500.225,12.369,500.213,12.357z"/>
					</defs>
					<clipPath id="SVGID_2_">
						<use xlink:href="#SVGID_1_"  overflow="visible"/>
					</clipPath>
					<g clip-path="url(#SVGID_2_)" enable-background="new    ">
						<path fill="#707476" d="M500.213,12.357l2.613,2.617c0.011,0.011,0.022,0.023,0.034,0.034l-2.613-2.617
							C500.236,12.38,500.225,12.369,500.213,12.357"/>
					</g>
				</g>
				<g>
					<polygon fill="#2F3235" points="474.794,38.573 477.407,41.189 485.724,49.782 483.111,47.165 					"/>
				</g>
				<g>
					<polygon fill="#2F3235" points="483.111,47.165 485.724,49.782 485.823,49.881 483.209,47.264 					"/>
				</g>
				<g>
					<polygon fill="#2F3235" points="483.209,47.264 485.823,49.881 494.131,58.482 491.517,55.865 					"/>
				</g>
				<g enable-background="new    ">
					<defs>
						<path id="SVGID_3_" enable-background="new    " d="M516.97,29.684l2.613,2.617c0.816,0.863,0.812,2.211-0.008,3.065
							l-2.613-2.617C517.782,31.895,517.786,30.547,516.97,29.684z"/>
					</defs>
					<clipPath id="SVGID_4_">
						<use xlink:href="#SVGID_3_"  overflow="visible"/>
					</clipPath>
					<g clip-path="url(#SVGID_4_)" enable-background="new    ">
						<path fill="#707476" d="M516.97,29.684l2.613,2.617c0.816,0.863,0.812,2.211-0.008,3.065l-2.613-2.617
							C517.782,31.895,517.786,30.547,516.97,29.684"/>
					</g>
				</g>
				<g>
					<polygon fill="#6F7274" points="516.962,32.749 519.575,35.365 514.7,40.383 512.087,37.766 					"/>
				</g>
				<g>
					<polygon fill="#6F7274" points="512.087,37.766 514.7,40.383 501.979,53.475 499.366,50.858 					"/>
				</g>
				<g>
					<polygon fill="#6F7274" points="499.366,50.858 501.979,53.475 497.105,58.491 494.492,55.874 					"/>
				</g>
				<g enable-background="new    ">
					<defs>
						<path id="SVGID_5_" enable-background="new    " d="M494.156,58.517l-2.613-2.617c0.401,0.402,0.929,0.604,1.458,0.604
							c0.514,0,1.028-0.191,1.491-0.631l2.613,2.617c-0.463,0.44-0.977,0.631-1.491,0.631
							C495.086,59.121,494.558,58.919,494.156,58.517z"/>
					</defs>
					<clipPath id="SVGID_6_">
						<use xlink:href="#SVGID_5_"  overflow="visible"/>
					</clipPath>
					<g clip-path="url(#SVGID_6_)" enable-background="new    ">
						<path fill="#707476" d="M494.492,55.874l2.613,2.617c-0.463,0.44-0.977,0.631-1.491,0.631c-0.529,0-1.057-0.202-1.458-0.604
							l-2.613-2.617c0.401,0.402,0.929,0.604,1.458,0.604C493.515,56.504,494.029,56.313,494.492,55.874"/>
					</g>
				</g>
				<g>
					<polygon fill="#6F7274" points="464.581,46.095 467.194,48.712 486.804,68.997 484.19,66.381 					"/>
				</g>
				<g enable-background="new    ">
					<defs>
						<path id="SVGID_7_" enable-background="new    " d="M491.517,55.865l2.613,2.617c-0.154-0.089-0.961-0.53-1.924-0.53
							c-1.384,0-3.089,0.911-3.58,5.123c-0.34,2.988-0.982,4.856-1.819,5.918l-2.613-2.617c0.837-1.061,1.479-2.93,1.819-5.918
							c0.491-4.211,2.196-5.123,3.58-5.123C490.556,55.335,491.363,55.776,491.517,55.865z"/>
					</defs>
					<clipPath id="SVGID_8_">
						<use xlink:href="#SVGID_7_"  overflow="visible"/>
					</clipPath>
					<g clip-path="url(#SVGID_8_)" enable-background="new    ">
						<path fill="#2F3336" d="M491.517,55.865l2.613,2.617c-0.154-0.089-0.961-0.53-1.924-0.53c-1.384,0-3.089,0.911-3.58,5.123
							c-0.34,2.988-0.982,4.856-1.819,5.918l-2.613-2.617c0.837-1.061,1.479-2.93,1.819-5.918c0.491-4.211,2.196-5.123,3.58-5.123
							C490.556,55.335,491.363,55.776,491.517,55.865"/>
					</g>
				</g>
				<g>
					<path fill="#94989B" d="M516.97,29.684c0.816,0.863,0.812,2.211-0.008,3.065l-4.875,5.017l-12.721,13.092l-4.874,5.016
						c-0.463,0.44-0.977,0.631-1.491,0.631c-0.54,0-1.08-0.211-1.484-0.631l-8.308-8.61l-0.098-0.099l-8.317-8.592
						c-0.816-0.863-0.812-2.211,0.008-3.065l22.479-23.116c0.462-0.443,0.974-0.632,1.485-0.632c0.541,0,1.08,0.211,1.481,0.632
						L516.97,29.684z"/>
				</g>
				<g>
					<path fill="#3E4347" d="M483.111,47.165l0.099,0.099l8.308,8.601c-0.154-0.089-0.961-0.53-1.924-0.53
						c-1.384,0-3.089,0.911-3.58,5.123c-0.34,2.988-0.982,4.856-1.819,5.918l-19.613-20.28c1.036-0.863,2.853-1.51,5.748-1.86
						c7.202-0.863,4.601-5.422,4.464-5.662L483.111,47.165z"/>
				</g>
				<g enable-background="new    ">
					<defs>
						<path id="SVGID_9_" enable-background="new    " d="M479.139,73.984l-2.613-2.617c0.397,0.397,0.921,0.597,1.447,0.597
							c0.511,0,1.024-0.189,1.422-0.569l2.613,2.617c-0.398,0.38-0.911,0.569-1.422,0.569
							C480.061,74.581,479.536,74.381,479.139,73.984z"/>
					</defs>
					<clipPath id="SVGID_10_">
						<use xlink:href="#SVGID_9_"  overflow="visible"/>
					</clipPath>
					<g clip-path="url(#SVGID_10_)" enable-background="new    ">
						<path fill="#707476" d="M479.395,71.396l2.613,2.617c-0.398,0.38-0.911,0.569-1.422,0.569c-0.526,0-1.05-0.2-1.447-0.597
							l-2.613-2.617c0.397,0.397,0.921,0.597,1.447,0.597C478.484,71.965,478.997,71.776,479.395,71.396"/>
					</g>
				</g>
				<g>
					<path fill="#94989B" d="M484.19,66.381c-0.09,0.126-4.5,4.711-4.732,4.952l-0.063,0.063c-0.398,0.38-0.911,0.569-1.422,0.569
						c-0.541,0-1.08-0.211-1.481-0.632l-16.724-17.301c-0.825-0.854-0.821-2.202,0.008-3.065c0.234-0.238,4.687-4.763,4.804-4.871
						L484.19,66.381z"/>
				</g>
				<g enable-background="new    ">
					<defs>
						<path id="SVGID_11_" enable-background="new    " d="M484.19,66.381l2.613,2.617c-0.09,0.126-4.5,4.711-4.732,4.952
							l-2.613-2.617C479.691,71.091,484.1,66.506,484.19,66.381z"/>
					</defs>
					<clipPath id="SVGID_12_">
						<use xlink:href="#SVGID_11_"  overflow="visible"/>
					</clipPath>
					<g clip-path="url(#SVGID_12_)" enable-background="new    ">
						<path fill="#707476" d="M484.19,66.381l2.613,2.617c-0.09,0.126-4.5,4.711-4.732,4.952l-2.613-2.617
							C479.691,71.091,484.1,66.506,484.19,66.381"/>
					</g>
				</g>
				<g>
					<polygon fill="#6F7274" points="479.458,71.333 482.072,73.95 482.009,74.012 479.395,71.396 					"/>
				</g>
				<g enable-background="new    ">
					<defs>
						<path id="SVGID_13_" enable-background="new    " d="M541.995,13.796l2.613,2.617c-14.944,0-25.466,14.112-26.02,14.855
							l-2.613-2.617C516.529,27.908,527.051,13.796,541.995,13.796z"/>
					</defs>
					<clipPath id="SVGID_14_">
						<use xlink:href="#SVGID_13_"  overflow="visible"/>
					</clipPath>
					<g clip-path="url(#SVGID_14_)" enable-background="new    ">
						<path fill="#2F3336" d="M541.995,13.796l2.613,2.617c-14.944,0-25.466,14.112-26.02,14.855l-2.613-2.617
							C516.529,27.908,527.051,13.796,541.995,13.796"/>
					</g>
				</g>
				<g enable-background="new    ">
					<defs>
						<path id="SVGID_15_" enable-background="new    " d="M548.898,10.243l2.613,2.617c0.124,0.124,0.249,0.25,0.373,0.378
							l-2.613-2.617C549.146,10.494,549.022,10.368,548.898,10.243z"/>
					</defs>
					<clipPath id="SVGID_16_">
						<use xlink:href="#SVGID_15_"  overflow="visible"/>
					</clipPath>
					<g clip-path="url(#SVGID_16_)" enable-background="new    ">
						<path fill="#2F3336" d="M548.898,10.243l2.613,2.617c0.124,0.125,0.249,0.25,0.373,0.378l-2.613-2.617
							C549.146,10.494,549.022,10.368,548.898,10.243"/>
					</g>
				</g>
				<g>
					<path fill="#3E4347" d="M549.27,10.621c1.613,1.654,4.356,4.503,3.635,5.24c-0.103,0.106-0.256,0.152-0.451,0.152
						c-0.812,0-2.354-0.791-4.049-1.284c-2.199-0.648-4.34-0.933-6.41-0.933c-14.944,0-25.466,14.112-26.02,14.855l-14.841-15.342
						c0.603-0.622,12.066-12.439,27.047-12.439C534.9,0.869,542.205,3.372,549.27,10.621z"/>
				</g>
				<g enable-background="new    ">
					<defs>
						<path id="SVGID_17_" enable-background="new    " d="M549.27,10.621l2.613,2.617c1.613,1.654,4.356,4.503,3.635,5.24
							c-0.103,0.106-0.256,0.152-0.451,0.152c-0.812,0-2.354-0.791-4.049-1.284c-2.199-0.648-4.34-0.933-6.41-0.933l-2.613-2.617
							c2.07,0,4.211,0.284,6.41,0.933c1.695,0.493,3.237,1.284,4.049,1.284c0.195,0,0.348-0.045,0.451-0.152
							C553.626,15.124,550.884,12.275,549.27,10.621z"/>
					</defs>
					<clipPath id="SVGID_18_">
						<use xlink:href="#SVGID_17_"  overflow="visible"/>
					</clipPath>
					<g clip-path="url(#SVGID_18_)" enable-background="new    ">
						<path fill="#2F3336" d="M549.27,10.621l2.613,2.617c1.613,1.654,4.356,4.503,3.635,5.24c-0.103,0.106-0.256,0.152-0.451,0.152
							c-0.812,0-2.354-0.791-4.049-1.284c-2.199-0.648-4.34-0.933-6.41-0.933l-2.613-2.617c2.07,0,4.211,0.284,6.41,0.933
							c1.695,0.493,3.237,1.284,4.049,1.284c0.195,0,0.348-0.045,0.451-0.152C553.626,15.124,550.884,12.275,549.27,10.621"/>
					</g>
				</g>
				<g>
					<polygon fill="#2F3235" points="512.087,37.766 514.7,40.383 527.252,53.356 524.639,50.739 					"/>
				</g>
				<g>
					<polygon fill="#2F3235" points="524.639,50.739 527.252,53.356 520.883,59.902 518.27,57.285 					"/>
				</g>
				<g>
					<polygon fill="#2F3235" points="518.27,57.285 520.883,59.902 518.97,61.872 516.356,59.256 					"/>
				</g>
				<g>
					<polygon fill="#2F3235" points="516.356,59.256 518.97,61.872 514.52,66.445 511.907,63.828 					"/>
				</g>
				<g>
					<polygon fill="#3E4347" points="512.087,37.766 524.639,50.739 518.27,57.285 516.356,59.256 511.907,63.828 499.366,50.858 
											"/>
				</g>
				<g>
					
						<rect x="468.302" y="112.908" transform="matrix(0.7076 -0.7066 0.7066 0.7076 57.9634 369.5862)" fill="#6F7274" width="14.484" height="3.698"/>
				</g>
				<g>
					
						<rect x="563.955" y="10.849" transform="matrix(0.7076 -0.7066 0.7066 0.7076 160.007 412.0616)" fill="#6F7274" width="27.868" height="3.698"/>
				</g>
				<g enable-background="new    ">
					<defs>
						<path id="SVGID_19_" enable-background="new    " d="M541.893,62.208c-2.026-2.028-3.976-3.803-5.717-5.296l-2.613-2.617
							c1.741,1.492,3.691,3.267,5.717,5.296C540.063,60.376,541.109,61.423,541.893,62.208z"/>
					</defs>
					<clipPath id="SVGID_20_">
						<use xlink:href="#SVGID_19_"  overflow="visible"/>
					</clipPath>
					<g clip-path="url(#SVGID_20_)" enable-background="new    ">
						<path fill="#707476" d="M539.279,59.591l2.613,2.617c-2.026-2.028-3.976-3.803-5.716-5.295l-2.613-2.617
							C535.303,55.788,537.254,57.562,539.279,59.591"/>
					</g>
				</g>
				<g enable-background="new    ">
					<defs>
						<path id="SVGID_21_" enable-background="new    " d="M517.692,75.345c1.744,2.191,3.909,4.728,6.445,7.349l-2.613-2.617
							c-2.535-2.621-4.701-5.158-6.445-7.349c0.378,0.379,0.757,0.758,1.136,1.137c0.103,0.103,0.24,0.24,0.343,0.343
							c0.102,0.102,0.238,0.238,0.34,0.34c0.099,0.099,0.231,0.232,0.33,0.331C517.382,75.035,517.546,75.181,517.692,75.345z"/>
					</defs>
					<clipPath id="SVGID_22_">
						<use xlink:href="#SVGID_21_"  overflow="visible"/>
					</clipPath>
					<g clip-path="url(#SVGID_22_)" enable-background="new    ">
						<path fill="#707476" d="M515.079,72.728l2.613,2.617c1.744,2.191,3.909,4.728,6.445,7.349l-2.613-2.617
							C518.988,77.457,516.823,74.92,515.079,72.728"/>
					</g>
				</g>
				<g enable-background="new    ">
					<defs>
						<path id="SVGID_23_" enable-background="new    " d="M524.137,82.694c0.173,0.179,0.347,0.357,0.523,0.532l-2.613-2.617
							c-0.176-0.176-0.35-0.353-0.523-0.532C522.308,80.863,523.359,81.903,524.137,82.694z"/>
					</defs>
					<clipPath id="SVGID_24_">
						<use xlink:href="#SVGID_23_"  overflow="visible"/>
					</clipPath>
					<g clip-path="url(#SVGID_24_)" enable-background="new    ">
						<path fill="#707476" d="M521.524,80.078l2.613,2.617c0.173,0.179,0.348,0.357,0.523,0.533l-2.613-2.617
							C521.871,80.434,521.697,80.257,521.524,80.078"/>
					</g>
				</g>
				<g>
					<polygon fill="#6F7274" points="469.11,118.563 471.723,121.18 475.424,135.164 472.81,132.548 					"/>
				</g>
				<g>
					<polygon fill="#6F7274" points="493.331,112.083 495.945,114.7 481.979,110.952 479.366,108.335 					"/>
				</g>
				<g>
					<polygon fill="#6F7274" points="566.713,21.226 569.327,23.843 573.036,37.828 570.423,35.211 					"/>
				</g>
				<g enable-background="new    ">
					<defs>
						<path id="SVGID_25_" enable-background="new    " d="M549.786,103.015l2.613,2.617c-5.6-5.608-11.186-9.529-16.37-13.242
							c-4.107-2.941-7.962-5.752-11.37-9.164l-2.613-2.617c3.408,3.412,7.263,6.222,11.37,9.164
							C538.6,93.486,544.186,97.407,549.786,103.015z"/>
					</defs>
					<clipPath id="SVGID_26_">
						<use xlink:href="#SVGID_25_"  overflow="visible"/>
					</clipPath>
					<g clip-path="url(#SVGID_26_)" enable-background="new    ">
						<path fill="#B88700" d="M549.786,103.015l2.613,2.617c-5.6-5.608-11.186-9.529-16.37-13.242
							c-4.107-2.941-7.962-5.752-11.37-9.164l-2.613-2.617c3.408,3.412,7.263,6.223,11.37,9.164
							C538.6,93.486,544.186,97.407,549.786,103.015"/>
					</g>
				</g>
				<g>
					
						<rect x="502.285" y="102.643" transform="matrix(0.7076 -0.7066 0.7066 0.7076 78.5889 398.8995)" fill="#6F7274" width="37.983" height="3.698"/>
				</g>
				<g enable-background="new    ">
					<defs>
						<path id="SVGID_27_" enable-background="new    " d="M539.279,59.591l2.613,2.617c0.359,0.359,0.719,0.726,1.082,1.101
							c3.619,3.743,6.516,8.026,9.577,12.606c3.717,5.56,7.676,11.555,13.465,17.548c1.117,1.155,2.239,2.297,3.363,3.423
							l-2.613-2.617c-1.124-1.126-2.247-2.267-3.363-3.423c-5.789-5.993-9.749-11.988-13.465-17.548
							c-3.061-4.579-5.958-8.863-9.577-12.606C539.999,60.317,539.638,59.95,539.279,59.591z"/>
					</defs>
					<clipPath id="SVGID_28_">
						<use xlink:href="#SVGID_27_"  overflow="visible"/>
					</clipPath>
					<g clip-path="url(#SVGID_28_)" enable-background="new    ">
						<path fill="#C29D25" d="M539.279,59.591l2.613,2.617c0.359,0.359,0.719,0.726,1.082,1.101
							c3.619,3.743,6.516,8.026,9.577,12.606c3.717,5.56,7.676,11.555,13.465,17.548c1.117,1.155,2.239,2.297,3.363,3.423
							l-2.613-2.617c-1.124-1.126-2.247-2.267-3.363-3.423c-5.789-5.993-9.749-11.988-13.465-17.548
							c-3.061-4.579-5.958-8.863-9.577-12.606C539.999,60.317,539.638,59.95,539.279,59.591"/>
					</g>
				</g>
				<g>
					
						<rect x="546.1" y="60.31" transform="matrix(0.7076 -0.7066 0.7066 0.7076 120.9148 416.5164)" fill="#6F7274" width="35.251" height="3.698"/>
				</g>
				<g enable-background="new    ">
					<defs>
						<path id="SVGID_29_" enable-background="new    " d="M506.522,116.594l2.613,2.617c1.973,8.188-0.478,16.816-6.444,22.766
							c-4.722,4.709-10.899,7.064-17.069,7.064c-6.17,0-12.334-2.355-17.03-7.064l-2.613-2.617c4.697,4.709,10.86,7.064,17.03,7.064
							c6.17,0,12.347-2.355,17.069-7.064C506.044,133.411,508.495,124.782,506.522,116.594z"/>
					</defs>
					<clipPath id="SVGID_30_">
						<use xlink:href="#SVGID_29_"  overflow="visible"/>
					</clipPath>
					<g clip-path="url(#SVGID_30_)" enable-background="new    ">
						<path fill="#707476" d="M506.522,116.594l2.613,2.617c1.973,8.188-0.478,16.816-6.444,22.766
							c-4.722,4.709-10.899,7.064-17.069,7.064c-6.17,0-12.334-2.355-17.03-7.064l-2.613-2.617c4.697,4.709,10.86,7.064,17.03,7.064
							c6.17,0,12.347-2.355,17.069-7.064C506.044,133.411,508.495,124.782,506.522,116.594"/>
					</g>
				</g>
				<g>
					<path fill="#94989B" d="M521.524,80.078c3.534,3.655,7.574,6.603,11.893,9.696l-26.895,26.821
						c1.973,8.188-0.478,16.816-6.444,22.766c-4.722,4.709-10.899,7.064-17.069,7.064c-6.17,0-12.334-2.355-17.03-7.064
						c-9.393-9.41-9.351-24.68,0.094-34.09c4.585-4.579,10.744-7.072,17.06-7.072c1.903,0,3.822,0.227,5.714,0.691l26.232-26.16
						C516.823,74.92,518.988,77.457,521.524,80.078z M486.785,136.287l10.256-10.228l-3.709-13.976l-13.966-3.748l-10.256,10.228
						l3.7,13.985L486.785,136.287"/>
				</g>
				<g>
					<path fill="#94989B" d="M604.125,19.267c1.973,8.179-0.469,16.807-6.444,22.757c-4.586,4.58-10.748,7.068-17.07,7.068
						c-1.903,0-3.82-0.225-5.713-0.687l-24.96,24.892c-3.062-4.579-5.958-8.863-9.577-12.606c-2.41-2.492-4.75-4.64-6.798-6.396
						l23.67-23.605c-1.973-8.179,0.469-16.807,6.444-22.757c4.585-4.579,10.744-7.072,17.06-7.072c1.903,0,3.822,0.227,5.714,0.691
						l-19.737,19.674l3.709,13.985l13.966,3.748L604.125,19.267z"/>
				</g>
				<g enable-background="new    ">
					<defs>
						<path id="SVGID_31_" enable-background="new    " d="M604.125,19.267l2.613,2.617c1.973,8.179-0.469,16.807-6.444,22.757
							c-4.586,4.58-10.748,7.068-17.07,7.068c-1.903,0-3.82-0.225-5.713-0.687l-2.613-2.617c1.893,0.461,3.81,0.687,5.713,0.687
							c6.322,0,12.484-2.488,17.07-7.068C603.657,36.074,606.098,27.446,604.125,19.267z"/>
					</defs>
					<clipPath id="SVGID_32_">
						<use xlink:href="#SVGID_31_"  overflow="visible"/>
					</clipPath>
					<g clip-path="url(#SVGID_32_)" enable-background="new    ">
						<path fill="#707476" d="M604.125,19.267l2.613,2.617c1.973,8.179-0.469,16.807-6.444,22.757
							c-4.586,4.58-10.748,7.068-17.07,7.068c-1.903,0-3.82-0.225-5.713-0.687l-2.613-2.617c1.893,0.461,3.81,0.687,5.713,0.687
							c6.322,0,12.484-2.488,17.07-7.068C603.657,36.074,606.098,27.446,604.125,19.267"/>
					</g>
				</g>
				<g enable-background="new    ">
					<defs>
						<path id="SVGID_33_" enable-background="new    " d="M603.923,126.881l2.613,2.617c1.099,1.1,0.597,1.652-1.181,3.483
							l-2.613-2.617C604.52,128.533,605.022,127.981,603.923,126.881z"/>
					</defs>
					<clipPath id="SVGID_34_">
						<use xlink:href="#SVGID_33_"  overflow="visible"/>
					</clipPath>
					<g clip-path="url(#SVGID_34_)" enable-background="new    ">
						<path fill="#C29D25" d="M603.923,126.881l2.613,2.617c1.099,1.1,0.597,1.652-1.181,3.483l-2.613-2.617
							C604.52,128.533,605.022,127.981,603.923,126.881"/>
					</g>
				</g>
				<g>
					<polygon fill="#B68600" points="518.27,57.285 520.883,59.902 598.433,140.108 595.82,137.491 					"/>
				</g>
				<g>
					<polygon fill="#BF9B25" points="602.742,130.364 605.355,132.981 598.433,140.108 595.82,137.491 					"/>
				</g>
				<g>
					<path fill="#FFCE31" d="M526.508,48.819c0.147,0.098,2.942,1.95,7.055,5.477c2.049,1.756,4.388,3.904,6.798,6.396
						c3.619,3.743,6.516,8.026,9.577,12.606c3.717,5.56,7.676,11.555,13.465,17.548c15.89,16.438,32.965,30.109,39.378,35.07
						c2.413,1.869,2.187,2.157-0.039,4.449l-6.922,7.127l-77.55-80.206l6.369-6.546L526.508,48.819z"/>
				</g>
				<g>
					<polygon fill="#B68600" points="595.82,137.491 598.433,140.108 591.502,147.235 588.889,144.618 					"/>
				</g>
				<g enable-background="new    ">
					<defs>
						<path id="SVGID_35_" enable-background="new    " d="M588.223,148.541l-2.613-2.617c0.337,0.338,0.625,0.5,0.923,0.5
							c0.588,0,1.218-0.634,2.357-1.807l2.613,2.617c-1.139,1.173-1.769,1.807-2.357,1.807
							C588.847,149.042,588.56,148.879,588.223,148.541z"/>
					</defs>
					<clipPath id="SVGID_36_">
						<use xlink:href="#SVGID_35_"  overflow="visible"/>
					</clipPath>
					<g clip-path="url(#SVGID_36_)" enable-background="new    ">
						<path fill="#B88700" d="M588.889,144.618l2.613,2.617c-1.139,1.173-1.769,1.807-2.357,1.807c-0.298,0-0.585-0.163-0.923-0.5
							l-2.613-2.617c0.337,0.338,0.625,0.5,0.923,0.5C587.12,146.425,587.75,145.791,588.889,144.618"/>
					</g>
				</g>
				<g>
					<path fill="#F2B200" d="M518.27,57.285l77.55,80.206l-6.931,7.127c-1.139,1.173-1.769,1.807-2.357,1.807
						c-0.557,0-1.077-0.569-1.957-1.789c-4.79-6.624-17.999-24.267-33.889-40.705c-5.9-6.103-11.808-10.246-17.27-14.157
						c-4.319-3.093-8.359-6.041-11.893-9.696c-2.535-2.621-4.701-5.158-6.445-7.349c-3.25-4.083-4.949-6.824-5.038-6.968
						l6.316-6.505L518.27,57.285z"/>
				</g>
			</g>
		</g>
	</g>
	<g>
		<g>
			<g enable-background="new    ">
				<g>
					<polygon fill="#C09B25" points="16.108,19.192 18.721,21.809 18.61,62.136 15.997,59.52 					"/>
				</g>
				<g>
					<polygon fill="#BF9B25" points="78.285,19.192 80.898,21.809 18.721,21.809 16.108,19.192 					"/>
				</g>
				<g>
					<polygon fill="#C09B25" points="78.322,5.684 80.935,8.3 80.898,21.809 78.285,19.192 					"/>
				</g>
				<g>
					<polygon fill="#C09B25" points="15.96,73.028 18.573,75.645 18.452,120.017 15.838,117.4 					"/>
				</g>
				<g>
					<polygon fill="#BF9B25" points="70.228,73.028 72.841,75.645 18.573,75.645 15.96,73.028 					"/>
				</g>
				<g>
					<polygon fill="#C09B25" points="70.265,59.52 72.878,62.136 72.841,75.645 70.228,73.028 					"/>
				</g>
				<g>
					<polygon fill="#FFCE31" points="78.322,5.684 78.285,19.192 16.108,19.192 15.997,59.52 70.265,59.52 70.228,73.028 
						15.96,73.028 15.838,117.4 78.878,117.4 78.841,130.9 -0.709,130.9 -0.365,5.684 					"/>
				</g>
				<g>
					<polygon fill="#C09B25" points="78.878,117.4 81.491,120.017 81.454,133.517 78.841,130.9 					"/>
				</g>
				<g>
					<polygon fill="#BF9B25" points="78.841,130.9 81.454,133.517 1.904,133.517 -0.709,130.9 					"/>
				</g>
			</g>
			<g enable-background="new    ">
				<g>
					<polygon fill="#C09B25" points="112.117,37.85 114.73,40.467 115.133,50.785 112.52,48.168 					"/>
				</g>
				<g enable-background="new    ">
					<defs>
						<path id="SVGID_37_" enable-background="new    " d="M149.133,54.593l2.613,2.617c-3.301-3.306-8.224-4.959-14.768-4.959
							c-10.444,0-17.592,4.44-21.454,13.329l-2.613-2.617c3.862-8.889,11.011-13.329,21.454-13.329
							C140.909,49.633,145.832,51.287,149.133,54.593z"/>
					</defs>
					<clipPath id="SVGID_38_">
						<use xlink:href="#SVGID_37_"  overflow="visible"/>
					</clipPath>
					<g clip-path="url(#SVGID_38_)" enable-background="new    ">
						<path fill="#C29D25" d="M149.133,54.593l2.613,2.617c-3.301-3.306-8.224-4.959-14.768-4.959
							c-10.444,0-17.592,4.44-21.454,13.329l-2.613-2.617c3.862-8.889,11.01-13.329,21.454-13.329
							C140.909,49.633,145.832,51.287,149.133,54.593"/>
					</g>
				</g>
				<g enable-background="new    ">
					<defs>
						<path id="SVGID_39_" enable-background="new    " d="M161.592,43.697l2.613,2.617c2.047,2.05,3.747,4.517,5.098,7.401
							l-2.613-2.617C165.339,48.214,163.639,45.747,161.592,43.697z"/>
					</defs>
					<clipPath id="SVGID_40_">
						<use xlink:href="#SVGID_39_"  overflow="visible"/>
					</clipPath>
					<g clip-path="url(#SVGID_40_)" enable-background="new    ">
						<path fill="#C29D25" d="M161.592,43.697l2.613,2.617c2.047,2.05,3.747,4.517,5.098,7.401l-2.613-2.617
							C165.339,48.214,163.639,45.747,161.592,43.697"/>
					</g>
				</g>
				<g>
					<polygon fill="#BF9B25" points="112.724,130.9 115.338,133.517 99.429,133.517 96.816,130.9 					"/>
				</g>
				<g>
					<polygon fill="#C09B25" points="112.911,62.962 115.524,65.579 115.338,133.517 112.724,130.9 					"/>
				</g>
				<g enable-background="new    ">
					<defs>
						<path id="SVGID_41_" enable-background="new    " d="M206.685,54.23l2.613,2.617c-3.063-3.067-8.053-4.597-14.961-4.597
							c-5.905,0-10.817,1.762-14.727,5.285c-3.901,3.532-6.179,8.278-6.825,14.236l-2.613-2.617
							c0.645-5.959,2.923-10.704,6.825-14.236c3.91-3.523,8.822-5.285,14.727-5.285C198.632,49.633,203.622,51.163,206.685,54.23z"
							/>
					</defs>
					<clipPath id="SVGID_42_">
						<use xlink:href="#SVGID_41_"  overflow="visible"/>
					</clipPath>
					<g clip-path="url(#SVGID_42_)" enable-background="new    ">
						<path fill="#C29D25" d="M206.685,54.23l2.613,2.617c-3.063-3.067-8.053-4.597-14.961-4.597
							c-5.905,0-10.817,1.762-14.727,5.285c-3.901,3.532-6.179,8.278-6.825,14.236l-2.613-2.617
							c0.645-5.959,2.923-10.704,6.825-14.236c3.91-3.523,8.822-5.285,14.727-5.285C198.632,49.633,203.622,51.163,206.685,54.23"/>
					</g>
				</g>
				<g enable-background="new    ">
					<defs>
						<path id="SVGID_43_" enable-background="new    " d="M219.137,43.898l2.613,2.617c5.393,5.4,8.162,13.618,8.306,24.655
							l-2.613-2.617C227.299,57.516,224.53,49.298,219.137,43.898z"/>
					</defs>
					<clipPath id="SVGID_44_">
						<use xlink:href="#SVGID_43_"  overflow="visible"/>
					</clipPath>
					<g clip-path="url(#SVGID_44_)" enable-background="new    ">
						<path fill="#C29D25" d="M219.137,43.898l2.613,2.617c5.393,5.4,8.162,13.618,8.306,24.655l-2.613-2.617
							C227.299,57.516,224.53,49.298,219.137,43.898"/>
					</g>
				</g>
				<g>
					<polygon fill="#BF9B25" points="170.003,130.9 172.616,133.517 156.618,133.517 154.005,130.9 					"/>
				</g>
				<g>
					<polygon fill="#C09B25" points="170.172,69.154 172.785,71.771 172.616,133.517 170.003,130.9 					"/>
				</g>
				<g>
					<polygon fill="#C09B25" points="227.443,68.552 230.056,71.169 229.885,133.517 227.272,130.9 					"/>
				</g>
				<g>
					<path fill="#FFCE31" d="M196.399,36.134c20.411,0,30.762,10.803,31.044,32.419l-0.171,62.347h-15.908l0.168-61.404
						c0.018-6.651-1.487-11.621-4.516-14.92c-3.029-3.298-8.129-4.943-15.292-4.943c-5.905,0-10.817,1.762-14.727,5.285
						c-3.901,3.532-6.179,8.278-6.825,14.236l-0.169,61.745h-15.998l0.167-60.972c0.037-13.526-6.568-20.294-19.807-20.294
						c-10.444,0-17.592,4.44-21.454,13.329l-0.186,67.938H96.816l0.255-93.049h15.045l0.403,10.318
						c6.844-8.026,16.058-12.034,27.643-12.034c13.014,0,21.853,4.988,26.526,14.964c3.113-4.476,7.149-8.089,12.118-10.839
						C183.767,37.509,189.64,36.134,196.399,36.134z"/>
				</g>
				<g>
					<polygon fill="#BF9B25" points="227.272,130.9 229.885,133.517 213.977,133.517 211.364,130.9 					"/>
				</g>
			</g>
			<g enable-background="new    ">
				<g enable-background="new    ">
					<defs>
						<path id="SVGID_45_" enable-background="new    " d="M318.57,47.51l2.613,2.617c0.572,0.572,1.131,1.166,1.679,1.782
							l-2.613-2.617C319.701,48.676,319.142,48.082,318.57,47.51z"/>
					</defs>
					<clipPath id="SVGID_46_">
						<use xlink:href="#SVGID_45_"  overflow="visible"/>
					</clipPath>
					<g clip-path="url(#SVGID_46_)" enable-background="new    ">
						<path fill="#C29D25" d="M318.57,47.51l2.613,2.617c0.572,0.572,1.131,1.166,1.679,1.782l-2.613-2.617
							C319.701,48.676,319.142,48.082,318.57,47.51"/>
					</g>
				</g>
				<g enable-background="new    ">
					<defs>
						<path id="SVGID_47_" enable-background="new    " d="M306.39,55.955l2.613,2.617c-4.493-4.499-10.122-6.754-16.888-6.754
							c-7.855,0-14.2,3.128-19.026,9.374c-4.834,6.246-7.268,15.198-7.3,26.828c-0.028,10.327,2.34,18.605,7.113,24.86
							c0.739,0.969,1.517,1.863,2.335,2.682l-2.613-2.617c-0.818-0.819-1.596-1.713-2.335-2.682
							c-4.773-6.255-7.141-14.533-7.113-24.86c0.032-11.63,2.465-20.582,7.3-26.828c4.826-6.246,11.17-9.374,19.026-9.374
							C296.268,49.202,301.898,51.457,306.39,55.955z"/>
					</defs>
					<clipPath id="SVGID_48_">
						<use xlink:href="#SVGID_47_"  overflow="visible"/>
					</clipPath>
					<g clip-path="url(#SVGID_48_)" enable-background="new    ">
						<path fill="#C29D25" d="M306.39,55.955l2.613,2.617c-4.493-4.499-10.122-6.754-16.888-6.754c-7.855,0-14.2,3.128-19.026,9.374
							c-4.834,6.246-7.268,15.198-7.3,26.828c-0.028,10.327,2.34,18.605,7.113,24.86c0.739,0.969,1.517,1.863,2.335,2.682
							l-2.613-2.617c-0.818-0.819-1.596-1.713-2.335-2.682c-4.773-6.255-7.141-14.533-7.113-24.86
							c0.032-11.63,2.465-20.582,7.3-26.828c4.826-6.246,11.17-9.374,19.026-9.374C296.268,49.202,301.898,51.457,306.39,55.955"/>
					</g>
				</g>
				<g enable-background="new    ">
					<defs>
						<path id="SVGID_49_" enable-background="new    " d="M320.249,49.292l2.613,2.617c7.804,8.772,11.682,20.438,11.642,34.998
							l-2.613-2.617C331.931,69.73,328.053,58.064,320.249,49.292z"/>
					</defs>
					<clipPath id="SVGID_50_">
						<use xlink:href="#SVGID_49_"  overflow="visible"/>
					</clipPath>
					<g clip-path="url(#SVGID_50_)" enable-background="new    ">
						<path fill="#C29D25" d="M320.249,49.292l2.613,2.617c7.804,8.772,11.682,20.438,11.642,34.998l-2.613-2.617
							C331.931,69.73,328.053,58.064,320.249,49.292"/>
					</g>
				</g>
				<g>
					<polygon fill="#C09B25" points="331.891,84.29 334.504,86.906 334.501,88.021 331.888,85.404 					"/>
				</g>
				<g enable-background="new    ">
					<defs>
						<path id="SVGID_51_" enable-background="new    " d="M263.11,123.859l-2.613-2.617c7.571,7.581,17.22,11.383,28.947,11.383
							c8.367,0,15.788-2.013,22.252-6.022c6.455-4.017,11.432-9.617,14.921-16.816c3.489-7.19,5.246-15.324,5.271-24.384
							l2.613,2.617c-0.025,9.06-1.782,17.193-5.271,24.384c-3.489,7.199-8.466,12.798-14.921,16.816
							c-6.464,4.008-13.884,6.022-22.252,6.022C280.33,135.242,270.681,131.441,263.11,123.859z"/>
					</defs>
					<clipPath id="SVGID_52_">
						<use xlink:href="#SVGID_51_"  overflow="visible"/>
					</clipPath>
					<g clip-path="url(#SVGID_52_)" enable-background="new    ">
						<path fill="#C29D25" d="M331.888,85.404l2.613,2.617c-0.025,9.06-1.782,17.193-5.271,24.384
							c-3.489,7.199-8.466,12.798-14.921,16.816c-6.464,4.008-13.884,6.022-22.252,6.022c-11.727,0-21.377-3.801-28.947-11.383
							l-2.613-2.617c7.571,7.581,17.22,11.383,28.947,11.383c8.367,0,15.788-2.013,22.252-6.022
							c6.455-4.017,11.432-9.617,14.921-16.816C330.106,102.598,331.863,94.464,331.888,85.404"/>
					</g>
				</g>
				<g>
					<path fill="#FFCE31" d="M320.249,49.292c7.804,8.772,11.682,20.438,11.642,34.998l-0.003,1.114
						c-0.025,9.06-1.782,17.193-5.271,24.384c-3.489,7.199-8.466,12.798-14.921,16.816c-6.464,4.008-13.884,6.022-22.252,6.022
						c-12.61,0-22.817-4.395-30.621-13.158c-7.804-8.772-11.682-20.384-11.642-34.836l0.003-1.114
						c0.025-9.114,1.836-17.319,5.442-24.599s8.61-12.897,15.011-16.852c6.401-3.955,13.704-5.932,21.901-5.932
						C302.211,36.134,312.445,40.52,320.249,49.292z M308.775,110.129c4.772-6.327,7.178-15.207,7.209-26.612
						c0.028-10.201-2.376-18.479-7.203-24.815c-4.827-6.327-11.253-9.5-19.279-9.5c-7.855,0-14.2,3.128-19.026,9.374
						c-4.834,6.246-7.268,15.198-7.3,26.828c-0.028,10.327,2.34,18.605,7.113,24.86c4.764,6.246,11.164,9.374,19.19,9.374
						C297.569,119.638,303.995,116.466,308.775,110.129"/>
				</g>
			</g>
			<g enable-background="new    ">
				<g>
					<polygon fill="#C09B25" points="368.391,37.85 371.004,40.467 370.72,144.266 368.106,141.649 					"/>
				</g>
				<g enable-background="new    ">
					<defs>
						<path id="SVGID_53_" enable-background="new    " d="M368.106,141.649l2.613,2.617c-0.049,17.894-8.18,26.828-24.403,26.828
							c-3.505,0-6.739-0.512-9.72-1.537l-2.613-2.617c2.981,1.025,6.215,1.537,9.72,1.537
							C359.926,168.477,368.057,159.543,368.106,141.649z"/>
					</defs>
					<clipPath id="SVGID_54_">
						<use xlink:href="#SVGID_53_"  overflow="visible"/>
					</clipPath>
					<g clip-path="url(#SVGID_54_)" enable-background="new    ">
						<path fill="#C29D25" d="M368.106,141.649l2.613,2.617c-0.049,17.894-8.18,26.828-24.403,26.828
							c-3.505,0-6.739-0.512-9.72-1.537l-2.613-2.617c2.981,1.025,6.215,1.537,9.72,1.537
							C359.926,168.477,368.057,159.543,368.106,141.649"/>
					</g>
				</g>
				<g>
					<path fill="#FFCE31" d="M352.197,142.071l0.286-104.221h15.908l-0.285,103.799c-0.049,17.894-8.18,26.828-24.403,26.828
						c-3.505,0-6.739-0.512-9.72-1.537l0.035-12.646c1.841,0.458,4.24,0.683,7.224,0.683c3.55,0,6.267-0.962,8.133-2.876
						C351.24,150.178,352.184,146.835,352.197,142.071z"/>
				</g>
			</g>
			<g enable-background="new    ">
				<g enable-background="new    ">
					<defs>
						<path id="SVGID_55_" enable-background="new    " d="M356.09,22.507l-2.613-2.617c1.537,1.539,3.77,2.313,6.706,2.313
							l2.613,2.617C359.861,24.82,357.628,24.046,356.09,22.507z"/>
					</defs>
					<clipPath id="SVGID_56_">
						<use xlink:href="#SVGID_55_"  overflow="visible"/>
					</clipPath>
					<g clip-path="url(#SVGID_56_)" enable-background="new    ">
						<path fill="#C29D25" d="M360.183,22.203l2.613,2.617c-2.936,0-5.169-0.774-6.706-2.313l-2.613-2.617
							C355.015,21.429,357.247,22.203,360.183,22.203"/>
					</g>
				</g>
				<g enable-background="new    ">
					<defs>
						<path id="SVGID_57_" enable-background="new    " d="M367,6.349l2.613,2.617c0.093,0.093,0.184,0.189,0.272,0.287
							c1.604,1.78,2.398,3.955,2.391,6.534c-0.007,2.579-0.813,4.728-2.426,6.453c-1.605,1.717-3.962,2.579-7.053,2.579
							l-2.613-2.617c3.092,0,5.449-0.863,7.053-2.579c1.613-1.726,2.419-3.874,2.426-6.453c0.007-2.579-0.787-4.754-2.391-6.534
							C367.184,6.538,367.093,6.442,367,6.349z"/>
					</defs>
					<clipPath id="SVGID_58_">
						<use xlink:href="#SVGID_57_"  overflow="visible"/>
					</clipPath>
					<g clip-path="url(#SVGID_58_)" enable-background="new    ">
						<path fill="#C29D25" d="M367,6.349l2.613,2.617c0.093,0.093,0.184,0.189,0.272,0.287c1.604,1.78,2.398,3.955,2.391,6.534
							c-0.007,2.579-0.813,4.728-2.426,6.453c-1.605,1.717-3.962,2.579-7.053,2.579l-2.613-2.617c3.092,0,5.449-0.863,7.053-2.579
							c1.613-1.726,2.419-3.874,2.426-6.453c0.007-2.579-0.787-4.754-2.391-6.534C367.184,6.538,367.093,6.442,367,6.349"/>
					</g>
				</g>
				<g>
					<path fill="#FFCE31" d="M360.183,22.203c-3.101,0-5.417-0.863-6.958-2.579c-1.541-1.726-2.317-3.874-2.31-6.453
						c0.007-2.526,0.804-4.692,2.391-6.489c1.578-1.807,3.881-2.714,6.928-2.714c3.092,0,5.444,0.89,7.039,2.669
						c1.604,1.78,2.398,3.955,2.391,6.534c-0.007,2.579-0.813,4.728-2.426,6.453C365.632,21.34,363.275,22.203,360.183,22.203z"/>
				</g>
			</g>
			<g enable-background="new    ">
				<g>
					<polygon fill="#C09B25" points="411.307,37.85 413.92,40.467 413.665,133.516 411.052,130.9 					"/>
				</g>
				<g>
					<polygon fill="#BF9B25" points="411.052,130.9 413.665,133.516 397.757,133.516 395.144,130.9 					"/>
				</g>
				<g>
					<polygon fill="#FFCE31" points="395.144,130.9 395.399,37.85 411.307,37.85 411.052,130.9 					"/>
				</g>
			</g>
			<g enable-background="new    ">
				<g enable-background="new    ">
					<defs>
						<path id="SVGID_59_" enable-background="new    " d="M399.337,22.455l-2.613-2.617c1.572,1.574,3.838,2.365,6.798,2.365
							l2.613,2.617C403.175,24.82,400.909,24.029,399.337,22.455z"/>
					</defs>
					<clipPath id="SVGID_60_">
						<use xlink:href="#SVGID_59_"  overflow="visible"/>
					</clipPath>
					<g clip-path="url(#SVGID_60_)" enable-background="new    ">
						<path fill="#C29D25" d="M403.522,22.203l2.613,2.617c-2.96,0-5.226-0.791-6.798-2.365l-2.613-2.617
							C398.296,21.412,400.562,22.203,403.522,22.203"/>
					</g>
				</g>
				<g enable-background="new    ">
					<defs>
						<path id="SVGID_61_" enable-background="new    " d="M410.358,6.36l2.613,2.617c0.089,0.09,0.177,0.182,0.262,0.276
							c1.595,1.78,2.398,3.955,2.391,6.534c-0.007,2.579-0.822,4.728-2.426,6.453c-1.613,1.717-3.962,2.579-7.062,2.579
							l-2.613-2.617c3.101,0,5.449-0.863,7.062-2.579c1.605-1.726,2.419-3.874,2.426-6.453c0.007-2.579-0.796-4.754-2.391-6.534
							C410.535,6.542,410.447,6.449,410.358,6.36z"/>
					</defs>
					<clipPath id="SVGID_62_">
						<use xlink:href="#SVGID_61_"  overflow="visible"/>
					</clipPath>
					<g clip-path="url(#SVGID_62_)" enable-background="new    ">
						<path fill="#C29D25" d="M410.358,6.36l2.613,2.617c0.089,0.09,0.177,0.182,0.262,0.276c1.595,1.78,2.398,3.955,2.391,6.534
							c-0.007,2.579-0.822,4.728-2.426,6.453c-1.613,1.717-3.962,2.579-7.062,2.579l-2.613-2.617c3.101,0,5.449-0.863,7.062-2.579
							c1.605-1.726,2.419-3.874,2.426-6.453c0.007-2.579-0.796-4.754-2.391-6.534C410.535,6.542,410.447,6.449,410.358,6.36"/>
					</g>
				</g>
				<g>
					<path fill="#FFCE31" d="M403.522,22.203c-3.092,0-5.426-0.863-7.003-2.579c-1.568-1.726-2.353-3.874-2.346-6.453
						c0.007-2.579,0.804-4.754,2.382-6.534c1.587-1.78,3.926-2.669,7.018-2.669c3.101,0,5.444,0.89,7.048,2.669
						c1.595,1.78,2.398,3.955,2.391,6.534c-0.007,2.579-0.822,4.728-2.426,6.453C408.971,21.34,406.623,22.203,403.522,22.203z"/>
				</g>
			</g>
			<g enable-background="new    ">
				<g>
					<polygon fill="#2F3235" points="685.177,19.192 687.79,21.809 647.633,21.809 645.02,19.192 					"/>
				</g>
				<g>
					<polygon fill="#2F3235" points="741.853,19.192 744.466,21.809 704.219,21.809 701.606,19.192 					"/>
				</g>
				<g>
					<polygon fill="#2F3235" points="741.89,5.684 744.503,8.3 744.466,21.809 741.853,19.192 					"/>
				</g>
				<g>
					<polygon fill="#2F3235" points="701.3,130.9 703.913,133.517 687.483,133.517 684.87,130.9 					"/>
				</g>
				<g>
					<polygon fill="#2F3235" points="701.606,19.192 704.219,21.809 703.913,133.517 701.3,130.9 					"/>
				</g>
				<g>
					<polygon fill="#3E4347" points="741.89,5.684 741.853,19.192 701.606,19.192 701.3,130.9 684.87,130.9 685.177,19.192 
						645.02,19.192 645.057,5.684 					"/>
				</g>
			</g>
			<g enable-background="new    ">
				<g enable-background="new    ">
					<defs>
						<path id="SVGID_63_" enable-background="new    " d="M816.415,47.51l2.613,2.617c0.572,0.572,1.131,1.166,1.679,1.782
							l-2.613-2.617C817.546,48.676,816.986,48.082,816.415,47.51z"/>
					</defs>
					<clipPath id="SVGID_64_">
						<use xlink:href="#SVGID_63_"  overflow="visible"/>
					</clipPath>
					<g clip-path="url(#SVGID_64_)" enable-background="new    ">
						<path fill="#2F3336" d="M816.415,47.51l2.613,2.617c0.572,0.572,1.131,1.166,1.679,1.782l-2.613-2.617
							C817.546,48.676,816.986,48.082,816.415,47.51"/>
					</g>
				</g>
				<g enable-background="new    ">
					<defs>
						<path id="SVGID_65_" enable-background="new    " d="M804.235,55.955l2.613,2.617c-4.493-4.499-10.122-6.754-16.888-6.754
							c-7.855,0-14.2,3.128-19.026,9.374c-4.834,6.246-7.268,15.198-7.3,26.828c-0.028,10.327,2.34,18.605,7.113,24.86
							c0.739,0.969,1.517,1.863,2.335,2.682l-2.613-2.617c-0.818-0.819-1.596-1.713-2.335-2.682
							c-4.773-6.255-7.141-14.533-7.113-24.86c0.032-11.63,2.465-20.582,7.3-26.828c4.826-6.246,11.17-9.374,19.026-9.374
							C794.113,49.202,799.742,51.457,804.235,55.955z"/>
					</defs>
					<clipPath id="SVGID_66_">
						<use xlink:href="#SVGID_65_"  overflow="visible"/>
					</clipPath>
					<g clip-path="url(#SVGID_66_)" enable-background="new    ">
						<path fill="#2F3336" d="M804.235,55.955l2.613,2.617c-4.493-4.499-10.122-6.754-16.888-6.754
							c-7.855,0-14.2,3.128-19.026,9.374c-4.834,6.246-7.268,15.198-7.3,26.828c-0.028,10.327,2.34,18.605,7.113,24.86
							c0.739,0.969,1.517,1.863,2.335,2.682l-2.613-2.617c-0.818-0.819-1.596-1.713-2.335-2.682
							c-4.773-6.255-7.141-14.533-7.113-24.86c0.032-11.63,2.465-20.582,7.3-26.828c4.826-6.246,11.17-9.374,19.026-9.374
							C794.113,49.202,799.742,51.457,804.235,55.955"/>
					</g>
				</g>
				<g enable-background="new    ">
					<defs>
						<path id="SVGID_67_" enable-background="new    " d="M818.094,49.292l2.613,2.617c7.804,8.772,11.682,20.438,11.642,34.998
							l-2.613-2.617C829.775,69.73,825.898,58.064,818.094,49.292z"/>
					</defs>
					<clipPath id="SVGID_68_">
						<use xlink:href="#SVGID_67_"  overflow="visible"/>
					</clipPath>
					<g clip-path="url(#SVGID_68_)" enable-background="new    ">
						<path fill="#2F3336" d="M818.094,49.292l2.613,2.617c7.804,8.772,11.682,20.438,11.642,34.998l-2.613-2.617
							C829.775,69.73,825.898,58.064,818.094,49.292"/>
					</g>
				</g>
				<g>
					<polygon fill="#2F3235" points="829.735,84.29 832.349,86.906 832.346,88.021 829.732,85.404 					"/>
				</g>
				<g enable-background="new    ">
					<defs>
						<path id="SVGID_69_" enable-background="new    " d="M760.955,123.859l-2.613-2.617c7.571,7.581,17.22,11.383,28.948,11.383
							c8.376,0,15.788-2.013,22.252-6.022c6.455-4.017,11.432-9.617,14.921-16.816c3.489-7.19,5.246-15.324,5.271-24.384
							l2.613,2.617c-0.025,9.06-1.782,17.193-5.271,24.384c-3.489,7.199-8.466,12.798-14.921,16.816
							c-6.464,4.008-13.875,6.022-22.252,6.022C778.175,135.242,768.525,131.441,760.955,123.859z"/>
					</defs>
					<clipPath id="SVGID_70_">
						<use xlink:href="#SVGID_69_"  overflow="visible"/>
					</clipPath>
					<g clip-path="url(#SVGID_70_)" enable-background="new    ">
						<path fill="#2F3336" d="M829.732,85.404l2.613,2.617c-0.025,9.06-1.782,17.193-5.271,24.384
							c-3.489,7.199-8.466,12.798-14.921,16.816c-6.464,4.008-13.875,6.022-22.252,6.022c-11.728,0-21.377-3.802-28.948-11.383
							l-2.613-2.617c7.571,7.581,17.22,11.383,28.948,11.383c8.376,0,15.788-2.013,22.252-6.022
							c6.455-4.017,11.432-9.617,14.921-16.816C827.951,102.598,829.707,94.464,829.732,85.404"/>
					</g>
				</g>
				<g>
					<path fill="#3E4347" d="M818.094,49.292c7.804,8.772,11.682,20.438,11.642,34.998l-0.003,1.114
						c-0.025,9.06-1.782,17.193-5.271,24.384c-3.489,7.199-8.466,12.798-14.921,16.816c-6.464,4.008-13.875,6.022-22.252,6.022
						c-12.61,0-22.817-4.395-30.621-13.158c-7.804-8.772-11.682-20.384-11.642-34.836l0.003-1.114
						c0.025-9.114,1.836-17.319,5.442-24.599c3.606-7.28,8.61-12.897,15.011-16.852s13.704-5.932,21.901-5.932
						C800.055,36.134,810.289,40.52,818.094,49.292z M806.62,110.129c4.772-6.327,7.178-15.207,7.209-26.612
						c0.028-10.201-2.376-18.479-7.203-24.815c-4.827-6.327-11.253-9.5-19.279-9.5c-7.855,0-14.2,3.128-19.026,9.374
						c-4.834,6.246-7.268,15.198-7.3,26.828c-0.028,10.327,2.34,18.605,7.113,24.86c4.764,6.246,11.164,9.374,19.19,9.374
						C795.413,119.638,801.839,116.466,806.62,110.129"/>
				</g>
			</g>
			<g enable-background="new    ">
				<g enable-background="new    ">
					<defs>
						<path id="SVGID_71_" enable-background="new    " d="M916.861,47.51l2.613,2.617c0.572,0.572,1.131,1.166,1.679,1.782
							l-2.613-2.617C917.992,48.676,917.432,48.082,916.861,47.51z"/>
					</defs>
					<clipPath id="SVGID_72_">
						<use xlink:href="#SVGID_71_"  overflow="visible"/>
					</clipPath>
					<g clip-path="url(#SVGID_72_)" enable-background="new    ">
						<path fill="#2F3336" d="M916.861,47.51l2.613,2.617c0.572,0.572,1.131,1.166,1.679,1.782l-2.613-2.617
							C917.992,48.676,917.432,48.082,916.861,47.51"/>
					</g>
				</g>
				<g enable-background="new    ">
					<defs>
						<path id="SVGID_73_" enable-background="new    " d="M904.681,55.955l2.613,2.617c-4.493-4.499-10.122-6.754-16.888-6.754
							c-7.855,0-14.2,3.128-19.026,9.374c-4.835,6.246-7.268,15.198-7.3,26.828c-0.028,10.327,2.34,18.605,7.113,24.86
							c0.739,0.969,1.517,1.863,2.335,2.682l-2.613-2.617c-0.818-0.819-1.596-1.713-2.335-2.682
							c-4.773-6.255-7.141-14.533-7.113-24.86c0.032-11.63,2.465-20.582,7.3-26.828c4.826-6.246,11.17-9.374,19.026-9.374
							C894.559,49.202,900.189,51.457,904.681,55.955z"/>
					</defs>
					<clipPath id="SVGID_74_">
						<use xlink:href="#SVGID_73_"  overflow="visible"/>
					</clipPath>
					<g clip-path="url(#SVGID_74_)" enable-background="new    ">
						<path fill="#2F3336" d="M904.681,55.955l2.613,2.617c-4.493-4.499-10.122-6.754-16.888-6.754
							c-7.855,0-14.2,3.128-19.026,9.374c-4.835,6.246-7.268,15.198-7.3,26.828c-0.028,10.327,2.34,18.605,7.113,24.86
							c0.739,0.969,1.517,1.863,2.335,2.682l-2.613-2.617c-0.818-0.819-1.596-1.713-2.335-2.682
							c-4.773-6.255-7.141-14.533-7.113-24.86c0.032-11.63,2.465-20.582,7.3-26.828c4.826-6.246,11.17-9.374,19.026-9.374
							C894.559,49.202,900.189,51.457,904.681,55.955"/>
					</g>
				</g>
				<g enable-background="new    ">
					<defs>
						<path id="SVGID_75_" enable-background="new    " d="M918.54,49.292l2.613,2.617c7.804,8.772,11.682,20.438,11.642,34.998
							l-2.613-2.617C930.221,69.73,926.344,58.064,918.54,49.292z"/>
					</defs>
					<clipPath id="SVGID_76_">
						<use xlink:href="#SVGID_75_"  overflow="visible"/>
					</clipPath>
					<g clip-path="url(#SVGID_76_)" enable-background="new    ">
						<path fill="#2F3336" d="M918.54,49.292l2.613,2.617c7.804,8.772,11.682,20.438,11.642,34.998l-2.613-2.617
							C930.221,69.73,926.344,58.064,918.54,49.292"/>
					</g>
				</g>
				<g>
					<polygon fill="#2F3235" points="930.182,84.29 932.795,86.906 932.792,88.021 930.179,85.404 					"/>
				</g>
				<g enable-background="new    ">
					<defs>
						<path id="SVGID_77_" enable-background="new    " d="M861.401,123.859l-2.613-2.617c7.571,7.581,17.22,11.383,28.948,11.383
							c8.367,0,15.788-2.013,22.252-6.022c6.455-4.017,11.432-9.617,14.921-16.816c3.489-7.19,5.246-15.324,5.271-24.384
							l2.613,2.617c-0.025,9.06-1.782,17.193-5.271,24.384c-3.489,7.199-8.466,12.798-14.921,16.816
							c-6.464,4.008-13.884,6.022-22.252,6.022C878.621,135.242,868.972,131.441,861.401,123.859z"/>
					</defs>
					<clipPath id="SVGID_78_">
						<use xlink:href="#SVGID_77_"  overflow="visible"/>
					</clipPath>
					<g clip-path="url(#SVGID_78_)" enable-background="new    ">
						<path fill="#2F3336" d="M930.179,85.404l2.613,2.617c-0.025,9.06-1.782,17.193-5.271,24.384
							c-3.489,7.199-8.466,12.798-14.921,16.816c-6.464,4.008-13.884,6.022-22.252,6.022c-11.727,0-21.377-3.802-28.948-11.383
							l-2.613-2.617c7.571,7.581,17.22,11.383,28.948,11.383c8.367,0,15.788-2.013,22.252-6.022
							c6.455-4.017,11.432-9.617,14.921-16.816C928.397,102.598,930.154,94.464,930.179,85.404"/>
					</g>
				</g>
				<g>
					<path fill="#3E4347" d="M918.54,49.292c7.804,8.772,11.682,20.438,11.642,34.998l-0.003,1.114
						c-0.025,9.06-1.782,17.193-5.271,24.384c-3.489,7.199-8.466,12.798-14.921,16.816c-6.464,4.008-13.885,6.022-22.252,6.022
						c-12.61,0-22.817-4.395-30.621-13.158c-7.804-8.772-11.682-20.384-11.642-34.836l0.003-1.114
						c0.025-9.114,1.836-17.319,5.442-24.599c3.606-7.28,8.61-12.897,15.011-16.852s13.704-5.932,21.901-5.932
						C900.502,36.134,910.735,40.52,918.54,49.292z M907.066,110.129c4.772-6.327,7.178-15.207,7.209-26.612
						c0.028-10.201-2.376-18.479-7.203-24.815c-4.827-6.327-11.253-9.5-19.279-9.5c-7.855,0-14.2,3.128-19.026,9.374
						c-4.835,6.246-7.268,15.198-7.3,26.828c-0.028,10.327,2.34,18.605,7.113,24.86c4.764,6.246,11.164,9.374,19.19,9.374
						C895.86,119.638,902.285,116.466,907.066,110.129"/>
				</g>
			</g>
			<g enable-background="new    ">
				<g>
					<polygon fill="#2F3235" points="967.652,-1.192 970.265,1.425 969.903,133.517 967.29,130.9 					"/>
				</g>
				<g>
					<polygon fill="#2F3235" points="967.29,130.9 969.903,133.517 953.995,133.517 951.381,130.9 					"/>
				</g>
				<g>
					<polygon fill="#3E4347" points="967.652,-1.192 967.29,130.9 951.381,130.9 951.744,-1.192 					"/>
				</g>
			</g>
			<g enable-background="new    ">
				<g enable-background="new    ">
					<defs>
						<path id="SVGID_79_" enable-background="new    " d="M1041.785,54.986l2.613,2.617c-0.359-0.359-0.74-0.712-1.143-1.056
							c-3.694-3.146-8.346-4.728-13.963-4.728c-5.788,0-10.321,1.258-13.6,3.784c-3.269,2.526-4.914,5.824-4.925,9.886
							c-0.008,3,0.909,5.421,2.752,7.266l-2.613-2.617c-1.843-1.845-2.76-4.266-2.752-7.266c0.011-4.062,1.656-7.361,4.925-9.886
							c3.278-2.526,7.812-3.784,13.6-3.784c5.617,0,10.269,1.582,13.963,4.728C1041.045,54.274,1041.426,54.626,1041.785,54.986z"/>
					</defs>
					<clipPath id="SVGID_80_">
						<use xlink:href="#SVGID_79_"  overflow="visible"/>
					</clipPath>
					<g clip-path="url(#SVGID_80_)" enable-background="new    ">
						<path fill="#2F3336" d="M1041.785,54.986l2.613,2.617c-0.359-0.359-0.74-0.712-1.143-1.056
							c-3.694-3.146-8.346-4.728-13.963-4.728c-5.788,0-10.321,1.258-13.6,3.784c-3.269,2.526-4.914,5.824-4.925,9.886
							c-0.008,3,0.909,5.421,2.752,7.266l-2.613-2.617c-1.843-1.845-2.76-4.266-2.752-7.266c0.011-4.062,1.656-7.361,4.925-9.886
							c3.278-2.526,7.812-3.784,13.6-3.784c5.617,0,10.269,1.582,13.963,4.728C1041.045,54.274,1041.426,54.626,1041.785,54.986"/>
					</g>
				</g>
				<g enable-background="new    ">
					<defs>
						<path id="SVGID_81_" enable-background="new    " d="M1012.228,116.128l-2.613-2.617c-2.937-2.941-4.517-6.694-4.75-11.246
							l2.613,2.617C1007.711,109.434,1009.291,113.186,1012.228,116.128z"/>
					</defs>
					<clipPath id="SVGID_82_">
						<use xlink:href="#SVGID_81_"  overflow="visible"/>
					</clipPath>
					<g clip-path="url(#SVGID_82_)" enable-background="new    ">
						<path fill="#2F3336" d="M1004.865,102.265l2.613,2.617c0.233,4.552,1.813,8.305,4.75,11.246l-2.613-2.617
							C1006.677,110.57,1005.098,106.817,1004.865,102.265"/>
					</g>
				</g>
				<g>
					<polygon fill="#2F3235" points="1062.155,65.2 1064.768,67.817 1048.77,67.817 1046.157,65.2 					"/>
				</g>
				<g enable-background="new    ">
					<defs>
						<path id="SVGID_83_" enable-background="new    " d="M1054.51,46.26l2.613,2.617c5.119,5.126,7.665,11.439,7.645,18.94
							l-2.613-2.617C1062.176,57.7,1059.629,51.387,1054.51,46.26z"/>
					</defs>
					<clipPath id="SVGID_84_">
						<use xlink:href="#SVGID_83_"  overflow="visible"/>
					</clipPath>
					<g clip-path="url(#SVGID_84_)" enable-background="new    ">
						<path fill="#2F3336" d="M1054.51,46.26l2.613,2.617c5.119,5.126,7.665,11.439,7.645,18.94l-2.613-2.617
							C1062.176,57.7,1059.629,51.387,1054.51,46.26"/>
					</g>
				</g>
				<g enable-background="new    ">
					<defs>
						<path id="SVGID_85_" enable-background="new    " d="M1043.631,97.458l2.613,2.617c-0.446-0.446-0.935-0.866-1.469-1.26
							c-3.238-2.373-8.877-4.422-16.925-6.148c-8.057-1.717-14.442-3.784-19.163-6.193c-3.234-1.65-5.889-3.515-7.966-5.595
							l-2.613-2.617c2.077,2.08,4.732,3.945,7.966,5.595c4.721,2.409,11.105,4.476,19.163,6.193
							c8.048,1.726,13.687,3.775,16.925,6.148C1042.696,96.592,1043.186,97.012,1043.631,97.458z"/>
					</defs>
					<clipPath id="SVGID_86_">
						<use xlink:href="#SVGID_85_"  overflow="visible"/>
					</clipPath>
					<g clip-path="url(#SVGID_86_)" enable-background="new    ">
						<path fill="#2F3336" d="M1043.631,97.458l2.613,2.617c-0.446-0.446-0.935-0.866-1.469-1.26
							c-3.238-2.373-8.877-4.422-16.925-6.148c-8.057-1.717-14.442-3.784-19.163-6.193c-3.234-1.65-5.889-3.515-7.966-5.595
							l-2.613-2.617c2.077,2.08,4.732,3.945,7.966,5.595c4.721,2.409,11.105,4.476,19.163,6.193
							c8.048,1.726,13.687,3.775,16.925,6.148C1042.696,96.592,1043.186,97.012,1043.631,97.458"/>
					</g>
				</g>
				<g enable-background="new    ">
					<defs>
						<path id="SVGID_87_" enable-background="new    " d="M1056.817,89.352l2.613,2.617c0.972,0.973,1.822,1.994,2.549,3.062
							c2.372,3.469,3.556,7.702,3.542,12.691c-0.023,8.314-3.375,14.973-10.031,19.989c-6.665,5.015-15.3,7.532-25.905,7.532
							c-7.46,0-14.044-1.321-19.771-3.964c-3.862-1.776-7.155-4.03-9.881-6.76l-2.613-2.617c2.726,2.73,6.019,4.984,9.881,6.76
							c5.727,2.642,12.311,3.964,19.771,3.964c10.605,0,19.24-2.517,25.905-7.532c6.656-5.015,10.008-11.675,10.031-19.989
							c0.014-4.988-1.17-9.221-3.542-12.691C1058.638,91.346,1057.788,90.325,1056.817,89.352z"/>
					</defs>
					<clipPath id="SVGID_88_">
						<use xlink:href="#SVGID_87_"  overflow="visible"/>
					</clipPath>
					<g clip-path="url(#SVGID_88_)" enable-background="new    ">
						<path fill="#2F3336" d="M1056.817,89.352l2.613,2.617c0.972,0.973,1.822,1.994,2.549,3.062
							c2.372,3.469,3.556,7.702,3.542,12.691c-0.023,8.314-3.375,14.973-10.031,19.989c-6.665,5.015-15.3,7.532-25.905,7.532
							c-7.46,0-14.044-1.321-19.771-3.964c-3.862-1.776-7.155-4.03-9.881-6.76l-2.613-2.617c2.726,2.73,6.019,4.984,9.881,6.76
							c5.727,2.642,12.311,3.964,19.771,3.964c10.605,0,19.24-2.517,25.905-7.532c6.656-5.015,10.008-11.675,10.031-19.989
							c0.014-4.988-1.17-9.221-3.542-12.691C1058.638,91.346,1057.788,90.325,1056.817,89.352"/>
					</g>
				</g>
				<g>
					<path fill="#3E4347" d="M1026.715,36.134c10.552,0,19.1,2.723,25.646,8.17c6.555,5.447,9.817,12.412,9.793,20.896h-15.998
						c0.012-4.359-1.829-8.116-5.515-11.271c-3.694-3.146-8.345-4.728-13.963-4.728c-5.788,0-10.321,1.258-13.6,3.784
						c-3.269,2.526-4.914,5.824-4.925,9.886c-0.011,3.847,1.5,6.741,4.533,8.691c3.032,1.95,8.519,3.811,16.45,5.59
						c7.94,1.78,14.37,3.901,19.288,6.363c4.927,2.463,8.577,5.429,10.941,8.898c2.372,3.469,3.556,7.702,3.542,12.691
						c-0.023,8.314-3.376,14.973-10.031,19.989c-6.665,5.015-15.3,7.532-25.905,7.532c-7.46,0-14.044-1.321-19.771-3.964
						c-5.727-2.633-10.202-6.318-13.433-11.046c-3.223-4.728-4.826-9.85-4.811-15.351h15.908c0.273,5.33,2.391,9.563,6.373,12.682
						c3.973,3.128,9.227,4.692,15.769,4.692c6.013,0,10.843-1.222,14.498-3.658c3.647-2.436,5.48-5.689,5.491-9.761
						c0.012-4.296-1.606-7.64-4.835-10.021c-3.238-2.373-8.877-4.422-16.925-6.148c-8.057-1.717-14.442-3.784-19.163-6.193
						c-4.721-2.409-8.209-5.276-10.465-8.601c-2.256-3.325-3.377-7.28-3.365-11.864c0.021-7.622,3.265-14.075,9.724-19.35
						C1008.436,38.767,1016.685,36.134,1026.715,36.134z"/>
				</g>
			</g>
		</g>
	</g>
</g>
<g>
</g>
<g>
</g>
<g>
</g>
<g>
</g>
<g>
</g>
<g>
</g>
<g>
</g>
<g>
</g>
<g>
</g>
<g>
</g>
<g>
</g>
<g>
</g>
<g>
</g>
<g>
</g>
<g>
</g>
</svg>
